<svg xmlns="http://www.w3.org/2000/svg" xmlns:xlink="http://www.w3.org/1999/xlink" width="32" height="32" viewBox="0 0 32 32"><defs><path id="a" d="M.588.25H15.64v18.114H.588z"/><path id="c" d="M0 1.103h28.01V30.61H0z"/></defs><g fill="none" fill-rule="evenodd"><path fill="#FF946D" d="M11.55 4.76l5.147 13.068 6.158-2.34s-4.218-8.174-7.224-10.322c-3.006-2.148-4.082-.405-4.082-.405"/><g transform="translate(7.565 1.14)"><mask id="b" fill="#fff"><use xlink:href="#a"/></mask><path fill="#000" d="M8.532 3.81C5.807 2.043 5.026 1.455 4.056 1.783L3.454.25 2.159.76l.603 1.533c-1.288.581.265 1.552.265 1.552.2-.214-2.299 3.13-2.08 2.93-.763 2.766-.27 7.381 1.092 11.589l1.3-.514c-1.65-5.186-2.08-11.407-.36-13.4.169-.091.347-.17.522-.253l4.945 12.376 1.294-.51L4.735 3.607c.185-.06.372-.119.558-.17 2.619.29 6.72 5.13 9.048 10.04l1.3-.513c-1.876-4.007-4.383-7.386-7.109-9.154" mask="url(#b)"/></g><g transform="translate(2 1.14)"><mask id="d" fill="#fff"><use xlink:href="#c"/></mask><path fill="#000" d="M10.018 3.955l.362-.117c.196-.064.393-.126.591-.18l.065-.017.067.007c2.836.314 6.38 3.989 8.818 9.148l.163.345-5.582 2.198-4.484-11.384zM8.257 17.8l-.117-.364C6.406 11.997 6.49 6.89 8.354 4.729l.103-.082c.142-.077.29-.145.435-.213l.46-.216 4.485 11.384-5.58 2.198zm-5.15 2.027l-.13-.33c-1.788-4.54-.57-9.808 3.031-13.112l.916-.842-.363-.067c-1.005 3.349-.425 8.11.925 12.267l.103.319-4.482 1.765zM13.933 3.25l.103-.004h.003c4.917 0 9.259 2.958 11.062 7.534l.13.332-4.48 1.766-.142-.304c-1.852-3.968-4.354-7.124-6.862-8.662l-1.08-.662h1.266zm14.077 9.07l-.915-2.325c-2.129-5.401-7.254-8.892-13.058-8.892a13.95 13.95 0 00-4.481.756l-1.31.517a13.973 13.973 0 00-7.074 7.167 13.94 13.94 0 00-.19 10.737l.918 2.326 12.06-4.75 5.022 12.753 1.992-.787-5.022-12.752 12.058-4.75z" mask="url(#d)"/></g></g></svg>