<svg width="80" height="65" viewBox="0 0 80 65" fill="none" xmlns="http://www.w3.org/2000/svg"><path fill-rule="evenodd" clip-rule="evenodd" d="M42.11 57.063c13.121 0 23.758-10.637 23.758-23.758 0-13.12-10.637-23.758-23.758-23.758-13.121 0-23.758 10.637-23.758 23.758 0 13.121 10.637 23.758 23.758 23.758z" fill="#FFCC32"/><path fill-rule="evenodd" clip-rule="evenodd" d="M19.974 32.513C19.974 18.975 30.95 8 44.487 8 58.025 8 69 18.975 69 32.513c0 13.538-10.975 24.513-24.513 24.513h-.755v-1.51h.755c12.704 0 23.003-10.299 23.003-23.003S57.19 9.51 44.487 9.51s-23.003 10.3-23.003 23.003c0 7.478 3.568 14.123 9.097 18.325l.602.457-.914 1.203-.602-.457c-5.888-4.476-9.693-11.558-9.693-19.528z" fill="#000"/><path d="M15.096 55.853c-6.758-.514-12.082-6.16-12.082-13.051 0-7.23 5.86-13.09 13.09-13.09 6.427 0 11.773 4.634 12.879 10.743a8.055 8.055 0 113.23 15.436H15.096v-.038z" fill="#fff"/><path d="M13.083 56.86C6.324 56.346 1 50.7 1 43.81c0-7.23 5.86-13.09 13.09-13.09 6.428 0 11.773 4.634 12.88 10.743a8.055 8.055 0 113.23 15.436H13.083v-.038z" fill="#fff"/><path fill-rule="evenodd" clip-rule="evenodd" d="M13.197 55.354l.445.034H30.2a6.545 6.545 0 10-2.624-12.543l-1.752.768-.34-1.882c-.979-5.403-5.71-9.501-11.394-9.501-6.395 0-11.58 5.184-11.58 11.579 0 6.094 4.71 11.09 10.687 11.545zM26.61 39.975c-1.64-5.358-6.624-9.256-12.52-9.256C6.86 30.72 1 36.58 1 43.81c0 6.89 5.324 12.537 12.083 13.051v.038H30.2a8.055 8.055 0 10-3.23-15.436 12.992 12.992 0 00-.361-1.487zm30.272.561H39.765v-1.51h17.117v1.51z" fill="#000"/><path d="M43.994 27.447c0 .973-.428 1.762-.956 1.762-.529 0-.957-.789-.957-1.762s.428-1.762.957-1.762c.528 0 .956.789.956 1.762zm10.27 0c0 .973-.428 1.762-.956 1.762s-.957-.789-.957-1.762.429-1.762.957-1.762.956.789.956 1.762z" fill="#000"/></svg>