<svg xmlns="http://www.w3.org/2000/svg" xmlns:xlink="http://www.w3.org/1999/xlink" width="32" height="32" viewBox="0 0 32 32"><defs><path id="a" d="M1.186 1.322h24.332v11.769H1.186z"/></defs><g fill="none" fill-rule="evenodd"><path fill="#FF946D" d="M2.09 28.026h4.647v-8.961H2.09z"/><path fill="#000" d="M1 29.117h6.826V17.974H1v11.143zm2.18-2.182h2.464v-6.778H3.18v6.778z"/><path fill="#000" d="M29.712 22.554c-.44-.407-1.191-.532-1.788-.375l-6.257 1.779c.019-.12.025-.241.017-.368 0-.973-.784-1.79-1.787-1.79h-3.888c-1.663-2.225-5.71-2.255-5.897-2.255H7.277v.627h2.866c.032 0 4.046.03 5.488 2.132.064.063.157.125.251.125h4.077a1.18 1.18 0 011.161 1.161c0 .234-.071.455-.193.641h-.002c-.01.015-.023.025-.03.041-.21.285-.543.477-.936.477h-7.056c-.187 0-.312.127-.312.314 0 .188.125.313.312.313h7.024c.586 0 1.107-.267 1.427-.688l6.727-1.914c.41-.095.942 0 1.224.252.157.155.251.312.22.47l-.046.44c-.507.255-9.144 4.277-10.797 4.95-1.6.657-3.857 0-3.888 0l-7.517-2.387v.687l7.36 2.327c.063.03 1.129.345 2.35.345.661 0 1.35-.093 1.915-.408 1.72-.688 8.557-3.872 8.989-4.085.12-.04 2.173-1.056 2.198-1.179l.062-.628a1.16 1.16 0 00-.439-1.004"/><g transform="translate(5.364 17.494)"><mask id="b" fill="#fff"><use xlink:href="#a"/></mask><path fill="#000" d="M11.624 13.091c-1.28 0-2.473-.32-2.676-.422l-7.762-2.445V8.012l8.469 2.685c1.336.336 2.603.343 3.387.022 1.465-.597 8.378-3.81 10.277-4.703a.833.833 0 00-.437-.026L16.4 7.834a2.546 2.546 0 01-1.835.776H7.54a1.018 1.018 0 01-1.042-1.04A1.02 1.02 0 017.54 6.528h7.056a.423.423 0 00.346-.177.434.434 0 00.087-.255.45.45 0 00-.433-.433h-4.077c-.274 0-.544-.12-.763-.336-1.096-1.574-3.96-1.914-4.98-1.922h-3.59V1.322h3.562c.448 0 4.294.067 6.24 2.258h3.545c1.187 0 2.185.828 2.448 1.936l5.382-1.53c.881-.232 1.86-.02 2.461.523.483.397.739 1 .688 1.616l-.063.639c-.16.806-2.669 1.789-2.695 1.798-.337.174-7.214 3.376-8.947 4.07-.52.296-1.26.46-2.183.46z" mask="url(#b)"/></g><path fill="#FF946D" d="M18.715 15.923c-3.963 0-7.188-3.225-7.188-7.188 0-3.964 3.225-7.19 7.188-7.19 3.966 0 7.19 3.226 7.19 7.19-.001 3.963-3.226 7.188-7.19 7.188"/><path fill="#000" d="M18.716.454a8.28 8.28 0 100 16.562 8.28 8.28 0 000-16.562m0 2.182a6.104 6.104 0 016.098 6.098 6.106 6.106 0 01-6.098 6.098 6.06 6.06 0 01-4.313-1.786 6.059 6.059 0 01-1.786-4.312 6.106 6.106 0 016.1-6.098"/><path fill="#000" d="M18.093 6.548v1.281a2.373 2.373 0 01-.163-.055.773.773 0 01-.234-.124.439.439 0 01-.12-.154.577.577 0 01-.047-.263c0-.11.017-.21.052-.303a.458.458 0 01.133-.19.925.925 0 01.307-.169.855.855 0 01.072-.023m1.17 4.318V9.361c.353.102.526.218.61.303.065.065.152.178.152.416a.754.754 0 01-.077.369.702.702 0 01-.223.24 1.196 1.196 0 01-.38.161c-.027.005-.055.012-.082.016m1.898-1.38a1.55 1.55 0 00-.314-.574 1.996 1.996 0 00-.546-.437 3.016 3.016 0 00-.768-.288l-.27-.065v-1.58c.134.04.249.099.343.175.164.135.26.398.284.782l.026.43h1.209l-.018-.473c-.026-.738-.257-1.295-.688-1.656-.311-.26-.7-.427-1.156-.497v-.905h-1.17v.905a2.255 2.255 0 00-.746.225 1.986 1.986 0 00-.69.569c-.16.223-.261.45-.299.685a2.916 2.916 0 00-.046.451c0 .314.058.59.174.816.112.223.265.407.455.554.172.131.365.236.575.311.186.069.374.124.557.163l.02 1.752a.99.99 0 01-.448-.27c-.195-.216-.29-.509-.29-.893v-.458h-1.218v.458c0 .4.06.752.175 1.046.119.303.292.56.51.767.217.202.482.358.783.46.155.053.32.095.493.129l.014.893h1.17l-.012-.87c.122-.017.243-.04.362-.067.291-.068.556-.182.787-.337.245-.163.442-.377.592-.637.154-.268.231-.594.231-.97 0-.208-.027-.408-.081-.594"/></g></svg>