<svg xmlns="http://www.w3.org/2000/svg" xmlns:xlink="http://www.w3.org/1999/xlink" width="32" height="32" viewBox="0 0 32 32"><defs><path id="a" d="M1.251 1.081h4.163V9.34H1.251z"/><path id="c" d="M0 .677h23.184v16.656H0z"/><path id="e" d="M.04 1.081h4.163V9.34H.04z"/></defs><g fill="none" fill-rule="evenodd"><path fill="#FF946D" d="M2 13.936l5.304-.018s4.36 7.98 6.577 9.533C16.1 25 19.35 26.332 19.35 26.332l1.479 1.552-3.03 1.33s-8.573-.812-10.863-3.547C4.644 22.934 1.72 15.582 2 13.937"/><path fill="#000" d="M16.061 29.586v-2c7.23 0 13.174-5.588 13.69-12.65l-3.856-.005c-.544 3.77-4.004 8.79-9.32 11.174l-.818-1.826c4.839-2.169 8.212-7.194 8.212-10.348V12.93l7.818.007v1c0 8.629-7.055 15.649-15.726 15.649"/><g transform="translate(26.333 4.253)"><mask id="b" fill="#fff"><use xlink:href="#a"/></mask><path fill="#000" d="M4.28 9.34L1.25 4.437V1.081h1.334V4.06l2.829 4.58z" mask="url(#b)"/></g><path fill="#000" d="M25.023 13.794l-1.057-.812 3.756-4.887 1.057.812z"/><g transform="translate(1 12.253)"><mask id="d" fill="#fff"><use xlink:href="#c"/></mask><path fill="#000" d="M15.727 17.333C7.055 17.333 0 10.313 0 1.684v-1L7.819.677V1.68c0 3.153 3.373 8.178 8.212 10.348 1.994.7 5.402 1.56 6.5 1.181l.653 1.89c-2.143.737-6.953-.883-7.896-1.217-5.385-2.41-8.85-7.433-9.395-11.202l-3.857.004c.516 7.062 6.46 12.65 13.69 12.65v2z" mask="url(#d)"/></g><g transform="translate(1 4.253)"><mask id="f" fill="#fff"><use xlink:href="#e"/></mask><path fill="#000" d="M1.175 9.34L.04 8.64l2.83-4.581V1.08h1.333v3.356z" mask="url(#f)"/></g><path fill="#000" d="M7.76 13.833L4.005 8.905l1.061-.808 3.755 4.928z"/></g></svg>