<svg xmlns="http://www.w3.org/2000/svg" xmlns:xlink="http://www.w3.org/1999/xlink" width="32" height="32" viewBox="0 0 32 32"><defs><path id="a" d="M0 .934h21.61v21.611H0z"/></defs><g fill="none" fill-rule="evenodd"><path fill="#FFF" d="M8.792 19.755h21.366V5.502H8.792z"/><path fill="#000" d="M7.735 20.812h23.48V4.446H7.735v16.366zM9.85 18.7h19.252V6.559H9.85V18.7z"/><path fill="#FFF" d="M13.481 2.409v4.134-4.134z"/><path fill="#000" d="M12.424 6.542h2.113V2.408h-2.114z"/><path fill="#FFF" d="M25.336 2.409v4.134-4.134z"/><path fill="#000" d="M24.28 6.542h2.112V2.408H24.28z"/><path fill="#FFF" d="M24.685 13.68h1.944-1.944z"/><path fill="#000" d="M24.684 14.385h1.945v-1.409h-1.945z"/><path fill="#FFF" d="M21.113 10.167h1.96-1.96z"/><path fill="#000" d="M21.113 10.871h1.96V9.462h-1.96z"/><path fill="#FFF" d="M24.685 10.167h1.944-1.944z"/><path fill="#000" d="M24.684 10.871h1.945V9.462h-1.945z"/><path fill="#FF946D" d="M21.554 20.421c0 5.384-4.365 9.748-9.748 9.748-5.384 0-9.75-4.364-9.75-9.748 0-5.384 4.366-9.748 9.75-9.748 5.383 0 9.748 4.364 9.748 9.748"/><g transform="translate(1 8.681)"><mask id="b" fill="#fff"><use xlink:href="#a"/></mask><path fill="#000" d="M10.806 3.048c-4.793 0-8.692 3.899-8.692 8.691 0 4.794 3.9 8.693 8.692 8.693s8.69-3.899 8.69-8.693c0-4.792-3.898-8.691-8.69-8.691m0 19.498C4.846 22.546 0 17.698 0 11.739 0 5.782 4.847.934 10.806.934S21.61 5.782 21.61 11.74c0 5.96-4.846 10.807-10.805 10.807" mask="url(#b)"/></g><path fill="#FF946D" d="M11.806 16.596v3.825h3.598"/><path fill="#000" d="M15.405 21.126H11.1v-4.53h1.41v3.12h2.894z"/></g></svg>