<svg xmlns="http://www.w3.org/2000/svg" viewBox="0 0 301 155"><title>illustrations_Final</title><g style="isolation:isolate"><g id="8d5e3fc3-7589-4102-9f46-d48e77904e60" data-name="Layer 1"><path d="M111.77,91.34V106.9l2.51,2.92a1.76,1.76,0,0,1,.44,1.16v.5a8.51,8.51,0,0,1-3,6.6V155H175l.18-63.65Z" fill="#ffca4f" style="mix-blend-mode:multiply"/><path d="M104.54,127.23H78.34l0,27.79h26.21Z" fill="#cbe3f4"/><rect x="84.31" y="139.69" width="5.79" height="1.5"/><rect x="59.83" y="127.61" width="13.66" height="7.4" fill="#cbe3f4" style="mix-blend-mode:multiply"/><rect x="59.83" y="139.25" width="13.66" height="7.4" fill="#cbe3f4" style="mix-blend-mode:multiply"/><path d="M8.53,119.26a17.34,17.34,0,1,1,17.33,17.33A17.35,17.35,0,0,1,8.53,119.26Z" fill="#e8f8f3"/><path d="M8.79,149.39a10,10,0,0,1-8.62-9.78C.18,136,3.26,122,10,121.94h0c6.38,0,9.91,13.25,9.91,17.64a10,10,0,0,1-8.58,9.82H8.79Z" fill="#0cb586"/><rect x="178.64" y="95.01" width="44.12" height="3.05" fill="#00b887"/><rect x="178.64" y="120.86" width="44.12" height="3.05" fill="#00b887"/><rect x="178.64" y="70.04" width="44.12" height="3.05" fill="#00b887"/><rect x="178.64" y="44.45" width="44.12" height="3.05" fill="#00b887"/><g opacity="0.15"><rect x="178.64" y="29.32" width="8.2" height="8.2" fill="#00b887"/><rect x="190.62" y="29.32" width="8.2" height="8.2" fill="#00b887"/><rect x="202.61" y="29.32" width="8.2" height="8.2" fill="#00b887"/><rect x="214.59" y="29.32" width="8.2" height="8.2" fill="#00b887"/></g><g opacity="0.15"><rect x="178.64" y="54.61" width="8.2" height="8.2" fill="#00b887"/><rect x="190.62" y="54.61" width="8.2" height="8.2" fill="#00b887"/><rect x="202.61" y="54.61" width="8.2" height="8.2" fill="#00b887"/><rect x="214.59" y="54.61" width="8.2" height="8.2" fill="#00b887"/></g><g opacity="0.15"><rect x="178.64" y="79.9" width="8.2" height="8.2" fill="#00b887"/><rect x="190.62" y="79.9" width="8.2" height="8.2" fill="#00b887"/><rect x="202.61" y="79.9" width="8.2" height="8.2" fill="#00b887"/><rect x="214.59" y="79.9" width="8.2" height="8.2" fill="#00b887"/></g><g opacity="0.15"><rect x="178.64" y="105.19" width="8.2" height="8.2" fill="#00b887"/><rect x="190.62" y="105.19" width="8.2" height="8.2" fill="#00b887"/><rect x="202.61" y="105.19" width="8.2" height="8.2" fill="#00b887"/><rect x="214.59" y="105.19" width="8.2" height="8.2" fill="#00b887"/></g><g opacity="0.15"><rect x="178.64" y="130.48" width="8.2" height="8.2" fill="#00b887"/><rect x="190.62" y="130.48" width="8.2" height="8.2" fill="#00b887"/><rect x="202.61" y="130.48" width="8.2" height="8.2" fill="#00b887"/><rect x="214.59" y="130.48" width="8.2" height="8.2" fill="#00b887"/></g><rect x="175.38" y="19.19" width="53.57" height="135.82" fill="#00b887" opacity="0.2"/><g style="mix-blend-mode:multiply"><rect x="120.69" y="44.01" width="45.26" height="45.04" fill="#ffca4f"/></g><rect x="102.5" y="85.24" width="77.82" height="5.7" fill="#ffca4f"/><g opacity="0.5" style="mix-blend-mode:multiply"><rect x="122.79" y="76.65" width="3.78" height="8.74" fill="#ffca4f"/><rect x="131.16" y="76.65" width="3.78" height="8.58" fill="#ffca4f"/></g><g opacity="0.5" style="mix-blend-mode:multiply"><rect x="114.83" y="134.98" width="4.41" height="10.15" fill="#ffca4f"/><rect x="123.04" y="134.98" width="4.41" height="10.15" fill="#ffca4f"/><rect x="131.25" y="134.98" width="4.41" height="10.15" fill="#ffca4f"/><rect x="139.45" y="134.98" width="4.41" height="10.15" fill="#ffca4f"/><rect x="147.66" y="134.98" width="4.41" height="10.15" fill="#ffca4f"/><rect x="155.87" y="134.98" width="4.41" height="10.15" fill="#ffca4f"/><rect x="164.07" y="134.98" width="4.41" height="10.15" fill="#ffca4f"/></g><g opacity="0.5" style="mix-blend-mode:multiply"><rect x="114.83" y="119.17" width="4.41" height="10.15" fill="#ffca4f"/><rect x="123.04" y="119.17" width="4.41" height="10.15" fill="#ffca4f"/><rect x="131.25" y="119.17" width="4.41" height="10.15" fill="#ffca4f"/><rect x="139.45" y="119.17" width="4.41" height="10.15" fill="#ffca4f"/><rect x="147.66" y="119.17" width="4.41" height="10.15" fill="#ffca4f"/><rect x="155.87" y="119.17" width="4.41" height="10.15" fill="#ffca4f"/><rect x="164.07" y="119.17" width="4.41" height="10.15" fill="#ffca4f"/></g><g opacity="0.5" style="mix-blend-mode:multiply"><rect x="114.83" y="103.13" width="4.41" height="10.15" fill="#ffca4f"/><rect x="123.04" y="103.13" width="4.41" height="10.15" fill="#ffca4f"/><rect x="131.25" y="103.13" width="4.41" height="10.15" fill="#ffca4f"/><rect x="139.45" y="103.13" width="4.41" height="10.15" fill="#ffca4f"/><rect x="147.66" y="103.13" width="4.41" height="10.15" fill="#ffca4f"/><rect x="155.87" y="103.13" width="4.41" height="10.15" fill="#ffca4f"/><rect x="164.07" y="103.13" width="4.41" height="10.15" fill="#ffca4f"/></g><g opacity="0.5" style="mix-blend-mode:multiply"><rect x="139.07" y="76.65" width="3.78" height="8.58" fill="#ffca4f"/><rect x="147.44" y="76.65" width="3.78" height="8.24" fill="#ffca4f"/><rect x="155.25" y="76.65" width="3.78" height="8.58" fill="#ffca4f"/></g><g opacity="0.5" style="mix-blend-mode:multiply"><rect x="122.79" y="54.19" width="3.78" height="18.05" fill="#ffca4f"/><rect x="131.16" y="54.19" width="3.78" height="18.05" fill="#ffca4f"/></g><g opacity="0.5" style="mix-blend-mode:multiply"><rect x="139.07" y="54.19" width="3.78" height="18.05" fill="#ffca4f"/><rect x="147.44" y="54.19" width="3.78" height="18.05" fill="#ffca4f"/><rect x="155.25" y="54.19" width="3.78" height="18.05" fill="#ffca4f"/></g><rect x="101.91" y="85.24" width="78.62" height="5.7" fill="#ffca4f" style="mix-blend-mode:multiply"/><path d="M223.29,98.6H178.11V94.48h45.18Zm-44.12-1.06h43.05v-2H179.17Z"/><path d="M223.29,124.44H178.11v-4.12h45.18Zm-44.12-1.06h43.05v-2H179.17Z"/><path d="M223.29,73.63H178.11V69.51h45.18Zm-44.12-1.07h43.05v-2H179.17Z"/><path d="M25.86,101.92A17.35,17.35,0,0,0,8.53,119.26a17.87,17.87,0,0,0,.25,2.85h0c-5.9,1.6-8.6,14.11-8.61,17.5a10,10,0,0,0,8.62,9.78h.62V155h1.32V149.4h.65A10,10,0,0,0,20,139.58a21.12,21.12,0,0,0-.57-4.25h0a17.22,17.22,0,0,0,4.71,1.17V155h1.32V136.57l.44,0a17.34,17.34,0,1,0,0-34.67Zm-14.59,46h-.54V135.19H9.41V147.9H9a8.53,8.53,0,0,1-7.32-8.29c0-3.46,3.07-16.16,8.37-16.17h0c2.82,0,4.95,3.93,6,6.27a29.76,29.76,0,0,1,2.44,9.88A8.48,8.48,0,0,1,11.27,147.9Zm14.59-12.81-.44,0v-7.89l5.14-8.3-1.12-.69-4,6.48V110.6H24.1V135a15.79,15.79,0,0,1-5.17-1.52h0c-1.46-5.23-4.41-11.3-8.66-11.51a16,16,0,0,1-.24-2.7,15.84,15.84,0,1,1,15.83,15.83Z"/><path d="M104.48,91.16a.74.74,0,0,1,1,0v0m-2.46-.66a.73.73,0,0,1-.53-.22.77.77,0,0,1,0-1.07.73.73,0,0,1,1,0h0a.75.75,0,0,1,0,1.06A.77.77,0,0,1,103.08,90.51Z"/><path d="M130.54,90.87a.75.75,0,0,1-.54-.22.76.76,0,0,1,0-1.07.74.74,0,0,1,1.05,0v0a.74.74,0,0,1-.53,1.27Zm-1.93-1.93a.73.73,0,0,1-.52-.21.76.76,0,0,1,0-1.07.74.74,0,0,1,1,0l0,0a.75.75,0,0,1,0,1.06A.76.76,0,0,1,128.61,88.94ZM126.68,87a.75.75,0,0,1-.53-1.29.73.73,0,0,1,1,0h0a.75.75,0,0,1,0,1.06A.73.73,0,0,1,126.68,87Zm-1.93-1.92"/><path d="M128.31,91.32a.74.74,0,0,1,1.05,0v0m-2.44-.64a.73.73,0,0,1-.52-.21.77.77,0,0,1,0-1.07.73.73,0,0,1,1.05,0l0,0a.75.75,0,0,1-.52,1.28ZM125,88.73a.75.75,0,0,1-.53-1.29.74.74,0,0,1,1,0l0,0a.75.75,0,0,1,0,1.06A.73.73,0,0,1,125,88.73Zm-1.93-1.93a.73.73,0,0,1-.53-.22.77.77,0,0,1,0-1.07.73.73,0,0,1,1,0h0a.75.75,0,0,1,0,1.06A.73.73,0,0,1,123.07,86.8Z"/><path d="M124.7,91.1a.73.73,0,0,1,1,0h0m-2.45-.64a.75.75,0,0,1-.53-1.29.74.74,0,0,1,1,0l0,0a.75.75,0,0,1,0,1.06A.73.73,0,0,1,123.32,90.45Zm-1.93-1.93a.74.74,0,0,1-.53-.23.75.75,0,0,1,0-1.06.74.74,0,0,1,1,0l0,0a.75.75,0,0,1,0,1.06A.73.73,0,0,1,121.39,88.52Zm-1.93-1.93a.75.75,0,0,1-.54-1.28.74.74,0,0,1,1,0v0a.74.74,0,0,1-.52,1.28Z"/><path d="M121.11,90.87a.74.74,0,0,1,1,0l0,0m-2.47-.66a.74.74,0,0,1-.53-.23.75.75,0,0,1,0-1.06.74.74,0,0,1,1,0l0,0a.75.75,0,0,1,0,1.06A.73.73,0,0,1,119.71,90.24Zm-1.93-1.93a.75.75,0,0,1-.54-1.28.73.73,0,0,1,1.05,0v0a.73.73,0,0,1,0,1A.76.76,0,0,1,117.78,88.31Zm-1.93-1.93a.75.75,0,0,1-.54-1.28.74.74,0,0,1,1,0l0,0a.74.74,0,0,1,0,1.05A.76.76,0,0,1,115.85,86.38Z"/><path d="M117.5,90.66a.74.74,0,0,1,1,0l0,0M116.1,90a.72.72,0,0,1-.52-.22.75.75,0,0,1,0-1.06.73.73,0,0,1,1,0h0a.75.75,0,0,1,0,1.06A.76.76,0,0,1,116.1,90Zm-1.93-1.93a.75.75,0,0,1-.54-1.28.73.73,0,0,1,1.05,0h0a.75.75,0,0,1-.53,1.29ZM112.77,86a.74.74,0,0,1-1,0"/><path d="M113.88,90.47a.74.74,0,0,1,1.05,0v0m-2.45-.64a.74.74,0,0,1-.52-.22.75.75,0,0,1,0-1.06.73.73,0,0,1,1,0h0a.75.75,0,0,1-.53,1.29Zm-1.93-1.93a.74.74,0,0,1-.52-.22.76.76,0,0,1,0-1.07.74.74,0,0,1,1,0v0a.74.74,0,0,1,0,1.06A.75.75,0,0,1,110.56,87.89Zm-1.4-2.14a.77.77,0,0,1-.52.21.76.76,0,0,1-.54-.23"/><path d="M110.28,91.31a.77.77,0,0,1,0-1.07.73.73,0,0,1,1,0h0a.75.75,0,0,1,0,1.06m-2.45-1.72a.74.74,0,0,1-.53-.22.77.77,0,0,1,0-1.07.73.73,0,0,1,1.05,0h0a.75.75,0,0,1,0,1.06A.77.77,0,0,1,108.88,89.6ZM107,87.68a.74.74,0,0,1-.53-.22.75.75,0,0,1,0-1.06.73.73,0,0,1,1,0h0a.76.76,0,0,1-.52,1.29Zm-1.39-2.17a.73.73,0,0,1-.54.24.75.75,0,0,1-.52-.21"/><path d="M107.2,91.32a.75.75,0,0,1-.53-1.28.73.73,0,0,1,1,0h0a.75.75,0,0,1,0,1.06A.73.73,0,0,1,107.2,91.32Zm-1.92-1.93a.75.75,0,0,1-.54-.22.76.76,0,0,1,0-1.07.73.73,0,0,1,1,0h0a.75.75,0,0,1,0,1.06A.77.77,0,0,1,105.28,89.39Zm-1.93-1.93a.73.73,0,0,1-.52-.21.75.75,0,0,1,1-1.09l0,0a.75.75,0,0,1,0,1.06A.73.73,0,0,1,103.35,87.46Z"/><path d="M158.87,91.28a.73.73,0,0,1,1,0h0m-2.46-.65a.73.73,0,0,1-.52-.21.76.76,0,0,1,0-1.07.74.74,0,0,1,1.05,0v0a.74.74,0,0,1-.52,1.28Zm-1.93-1.93a.75.75,0,1,1,.51-1.3v0a.74.74,0,0,1-.52,1.28Zm-1.93-1.93a.73.73,0,0,1-.53-.22.77.77,0,0,1,0-1.07.73.73,0,0,1,1,0h0a.75.75,0,0,1,0,1.06A.73.73,0,0,1,153.62,86.77Z"/><path d="M155.26,91.06a.73.73,0,0,1,1.05,0h0m-2.46-.65a.75.75,0,0,1-.54-1.28.74.74,0,0,1,1,0v0a.73.73,0,0,1,0,1A.76.76,0,0,1,153.87,90.42Zm-1.93-1.93a.73.73,0,0,1-.53-.22.77.77,0,0,1,0-1.07.73.73,0,0,1,1.05,0h0a.75.75,0,0,1,0,1.06A.73.73,0,0,1,151.94,88.49ZM150,86.56a.74.74,0,0,1-.53-.22.77.77,0,0,1,0-1.07.73.73,0,0,1,1.05,0h0a.75.75,0,0,1,0,1.06A.77.77,0,0,1,150,86.56Z"/><path d="M151.65,90.86a.73.73,0,0,1,1,0h0m-2.45-.64a.74.74,0,0,1-.53-.23.75.75,0,0,1,0-1.06.74.74,0,0,1,1.05,0l0,0a.75.75,0,0,1,0,1.06A.73.73,0,0,1,150.26,90.21Zm-1.93-1.93a.73.73,0,0,1-.53-.22.77.77,0,0,1,0-1.07.74.74,0,0,1,1,0l0,0a.75.75,0,0,1,0,1.06A.77.77,0,0,1,148.33,88.28Zm-1.42-3.23,0,0a.75.75,0,0,1,0,1.06.74.74,0,0,1-.53.22.77.77,0,0,1-.53-.21.77.77,0,0,1,0-1.07"/><path d="M148.05,90.64a.74.74,0,0,1,1,0l0,0M146.65,90a.74.74,0,0,1-.53-.23.75.75,0,0,1,0-1.06.74.74,0,0,1,1,0l0,0a.75.75,0,0,1,0,1.06A.77.77,0,0,1,146.65,90Zm-1.92-1.93a.77.77,0,0,1-.53-.21.77.77,0,0,1,0-1.07.73.73,0,0,1,1,0l0,0a.74.74,0,0,1,0,1A.75.75,0,0,1,144.73,88.07Zm-1.39-2.16a.78.78,0,0,1-.54.23.79.79,0,0,1-.52-.2"/><path d="M144.44,90.42a.75.75,0,0,1,1.05,0l0,0m-2.46-.66a.74.74,0,0,1-.53-.22.75.75,0,0,1,0-1.06.73.73,0,0,1,1.05,0h0a.76.76,0,0,1-.52,1.29Zm-1.93-1.93a.76.76,0,0,1-.55-1.27.74.74,0,0,1,1.05,0v0a.75.75,0,0,1,0,1.06A.78.78,0,0,1,141.12,87.86Zm-1.41-2.14a.75.75,0,0,1-1.06,0"/><path d="M140.85,91.3a.77.77,0,0,1,0-1.07.73.73,0,0,1,1.05,0h0a.75.75,0,0,1,0,1.06m-2.47-1.69a.76.76,0,0,1-.53-1.3.74.74,0,0,1,1.05,0v0a.75.75,0,0,1-.53,1.27Zm-1.93-1.93a.76.76,0,0,1-.54-.23A.75.75,0,0,1,138,86.36v0a.73.73,0,0,1,0,1.05A.72.72,0,0,1,137.51,87.65Zm-1.39-2.16a.75.75,0,0,1-1.06,0"/><path d="M137.76,91.29a.74.74,0,0,1-.52-.2.76.76,0,0,1,0-1.07.72.72,0,0,1,1,0h0a.75.75,0,0,1,0,1.06A.73.73,0,0,1,137.76,91.29Zm-1.93-1.93a.75.75,0,0,1-.54-.22.76.76,0,0,1,0-1.07.73.73,0,0,1,1,0h0a.75.75,0,0,1,0,1.06A.77.77,0,0,1,135.83,89.36Zm-1.93-1.92a.76.76,0,0,1-.53-1.3.74.74,0,0,1,1,0v0a.73.73,0,0,1,0,1A.7.7,0,0,1,133.9,87.44Zm-1.39-2.16a.78.78,0,0,1-.54.23.73.73,0,0,1-.52-.21"/><path d="M134.15,91.08a.75.75,0,0,1-.54-.22.76.76,0,0,1,0-1.07.73.73,0,0,1,1,0h0a.75.75,0,0,1,0,1.06A.77.77,0,0,1,134.15,91.08Zm-1.93-1.93a.75.75,0,0,1-.54-.22.76.76,0,0,1,0-1.07.73.73,0,0,1,1.05,0h0a.74.74,0,0,1-.53,1.27Zm-1.93-1.92a.76.76,0,0,1-.54-1.28.72.72,0,0,1,1,0h0a.75.75,0,0,1,0,1.06A.78.78,0,0,1,130.29,87.23Zm-1.41-2.15a.7.7,0,0,1-.52.22.78.78,0,0,1-.54-.23"/><path d="M180.56,86.62a.75.75,0,0,1-.54-.22.76.76,0,0,1,0-1.07"/><path d="M180.29,90.06a.77.77,0,0,1,0-1.07m-1.38-.65a.75.75,0,0,1-.54-.22.76.76,0,0,1,0-1.07.73.73,0,0,1,1.05,0h0a.74.74,0,0,1-.53,1.27ZM177,86.41a.75.75,0,0,1-.53-1.29.73.73,0,0,1,1.05,0h0a.75.75,0,0,1,0,1.06A.73.73,0,0,1,177,86.41Z"/><path d="M178.58,90.71a.73.73,0,0,1,1,0h0m-2.45-.64a.76.76,0,0,1-.54-.23.75.75,0,0,1,1.06-1.06v0a.75.75,0,0,1,0,1.06A.73.73,0,0,1,177.2,90.06Zm-1.93-1.93a.75.75,0,0,1-.53-1.29.74.74,0,0,1,1,0l0,0a.75.75,0,0,1,0,1.06A.73.73,0,0,1,175.27,88.13ZM173.88,86a.76.76,0,0,1-1.06,0"/><path d="M175,90.49a.74.74,0,0,1,1,0v0m-2.46-.66a.76.76,0,0,1-.55-1.27.74.74,0,0,1,1.05,0v0a.75.75,0,0,1,0,1.06A.76.76,0,0,1,173.59,89.85Zm-1.93-1.93a.73.73,0,0,1-.52-.21.76.76,0,0,1,0-1.07.74.74,0,0,1,1,0v0a.73.73,0,0,1,0,1A.76.76,0,0,1,171.66,87.92Zm-1.41-2.14a.73.73,0,0,1-.52.21.73.73,0,0,1-.53-.22"/><path d="M171.37,91.34a.77.77,0,0,1,0-1.07.74.74,0,0,1,1.05,0l0,0a.74.74,0,0,1,0,1M170,89.64a.7.7,0,0,1-.52-.22.75.75,0,0,1,0-1.06.73.73,0,0,1,1.05,0h0a.75.75,0,0,1-.52,1.29Zm-1.93-1.93a.75.75,0,0,1-.54-1.28.73.73,0,0,1,1.05,0v0a.73.73,0,0,1,0,1A.76.76,0,0,1,168.05,87.71Zm-1.4-2.14a.77.77,0,0,1-.53.21.74.74,0,0,1-.53-.23"/><path d="M168.3,91.35a.73.73,0,0,1-.52-.21.75.75,0,0,1,1-1.09v0a.74.74,0,0,1-.52,1.28Zm-1.93-1.92a.72.72,0,0,1-.52-.22.75.75,0,0,1,0-1.06.73.73,0,0,1,1,0h0a.75.75,0,0,1,0,1.06A.76.76,0,0,1,166.37,89.43Zm-1.93-1.93a.74.74,0,0,1-.53-.23.75.75,0,0,1,0-1.06.74.74,0,0,1,1.05,0l0,0a.75.75,0,0,1,0,1.06A.73.73,0,0,1,164.44,87.5ZM163,85.35a.74.74,0,0,1-1,0"/><path d="M164.69,91.14a.75.75,0,0,1-.54-1.27.74.74,0,0,1,1,0v0a.74.74,0,0,1-.52,1.28Zm-1.93-1.92a.74.74,0,0,1-.53-.23.77.77,0,0,1,0-1.07.73.73,0,0,1,1.05,0h0a.76.76,0,0,1-.54,1.28Zm-1.93-1.93a.79.79,0,0,1-.53-.22.77.77,0,0,1,0-1.07.74.74,0,0,1,1,0v0a.75.75,0,0,1-.53,1.28Zm-1.39-2.16a.75.75,0,0,1-.53.23.77.77,0,0,1-.53-.21"/><path d="M161.08,90.93a.73.73,0,0,1-.53-.22.77.77,0,0,1,0-1.07.73.73,0,0,1,1,0h0a.75.75,0,0,1,0,1.06A.73.73,0,0,1,161.08,90.93ZM159.15,89a.75.75,0,1,1,.52-1.29v0a.74.74,0,0,1,0,1A.73.73,0,0,1,159.15,89Zm-1.92-1.92a.79.79,0,0,1-.53-.22.75.75,0,0,1,0-1.06.73.73,0,0,1,1,0h0a.76.76,0,0,1-.52,1.29Zm-1.93-1.93"/><path d="M223.29,48.12H178.11V44h45.18Zm-44.12-1.06h43.05v-2H179.17Z"/><rect x="214.14" y="1.04" width="87" height="5.62" fill="#cbe3f4"/><rect x="249.33" y="21.31" width="7.12" height="4.2" fill="#cee3f3"/><rect x="237.94" y="21.31" width="7.12" height="4.2" fill="#cee3f3"/><rect x="261.75" y="21.31" width="7.12" height="4.2" fill="#cee3f3"/><rect x="284.53" y="21.31" width="7.12" height="4.2" fill="#cee3f3"/><rect x="273.14" y="21.31" width="7.12" height="4.2" fill="#cee3f3"/><rect x="228.98" y="21.31" width="4.69" height="4.2" fill="#cee3f3" style="mix-blend-mode:multiply"/><rect x="249.33" y="29.32" width="7.12" height="4.2" fill="#cee3f3"/><rect x="237.94" y="29.32" width="7.12" height="4.2" fill="#cee3f3"/><rect x="284.53" y="29.32" width="7.12" height="4.2" fill="#cee3f3"/><rect x="273.14" y="29.32" width="7.12" height="4.2" fill="#cee3f3"/><rect x="261.75" y="29.32" width="7.12" height="4.2" fill="#cee3f3"/><rect x="228.98" y="29.35" width="4.69" height="4.2" fill="#cee3f3" style="mix-blend-mode:multiply"/><rect x="249.33" y="37.38" width="7.12" height="4.2" fill="#cee3f3"/><rect x="237.94" y="37.38" width="7.12" height="4.2" fill="#cee3f3"/><rect x="261.75" y="37.38" width="7.12" height="4.2" fill="#cee3f3"/><rect x="284.53" y="37.38" width="7.12" height="4.2" fill="#cee3f3"/><rect x="273.14" y="37.38" width="7.12" height="4.2" fill="#cee3f3"/><rect x="228.98" y="37.39" width="4.69" height="4.2" fill="#cee3f3" style="mix-blend-mode:multiply"/><rect x="249.33" y="45.42" width="7.12" height="4.2" fill="#cee3f3"/><rect x="237.94" y="45.42" width="7.12" height="4.2" fill="#cee3f3"/><rect x="284.53" y="45.42" width="7.12" height="4.2" fill="#cee3f3"/><rect x="273.14" y="45.42" width="7.12" height="4.2" fill="#cee3f3"/><rect x="261.75" y="45.42" width="7.12" height="4.2" fill="#cee3f3"/><rect x="228.98" y="45.31" width="4.69" height="4.2" fill="#cee3f3" style="mix-blend-mode:multiply"/><rect x="249.33" y="53.46" width="7.12" height="4.2" fill="#cee3f3"/><rect x="237.94" y="53.46" width="7.12" height="4.2" fill="#cee3f3"/><rect x="284.53" y="53.46" width="7.12" height="4.2" fill="#cee3f3"/><rect x="273.14" y="53.46" width="7.12" height="4.2" fill="#cee3f3"/><rect x="261.75" y="53.46" width="7.12" height="4.2" fill="#cee3f3"/><rect x="228.98" y="53.4" width="4.69" height="4.2" fill="#cee3f3" style="mix-blend-mode:multiply"/><rect x="249.33" y="61.5" width="7.12" height="4.2" fill="#cee3f3"/><rect x="237.94" y="61.5" width="7.12" height="4.2" fill="#cee3f3"/><rect x="284.53" y="61.5" width="7.12" height="4.2" fill="#cee3f3"/><rect x="273.14" y="61.5" width="7.12" height="4.2" fill="#cee3f3"/><rect x="261.75" y="61.5" width="7.12" height="4.2" fill="#cee3f3"/><rect x="228.98" y="61.41" width="4.69" height="4.2" fill="#cee3f3" style="mix-blend-mode:multiply"/><rect x="249.33" y="69.53" width="7.12" height="4.2" fill="#cee3f3"/><rect x="237.94" y="69.53" width="7.12" height="4.2" fill="#cee3f3"/><rect x="284.53" y="69.53" width="7.12" height="4.2" fill="#cee3f3"/><rect x="273.14" y="69.53" width="7.12" height="4.2" fill="#cee3f3"/><rect x="261.75" y="69.53" width="7.12" height="4.2" fill="#cee3f3"/><rect x="228.98" y="69.42" width="4.69" height="4.2" fill="#cee3f3" style="mix-blend-mode:multiply"/><rect x="249.33" y="77.57" width="7.12" height="4.2" fill="#cee3f3"/><rect x="237.94" y="77.57" width="7.12" height="4.2" fill="#cee3f3"/><rect x="284.53" y="77.57" width="7.12" height="4.2" fill="#cee3f3"/><rect x="273.14" y="77.57" width="7.12" height="4.2" fill="#cee3f3"/><rect x="261.75" y="77.57" width="7.12" height="4.2" fill="#cee3f3"/><rect x="228.98" y="77.46" width="4.69" height="4.2" fill="#cee3f3" style="mix-blend-mode:multiply"/><rect x="249.33" y="85.6" width="7.12" height="4.2" fill="#cee3f3"/><rect x="237.94" y="85.6" width="7.12" height="4.2" fill="#cee3f3"/><rect x="261.75" y="85.6" width="7.12" height="4.2" fill="#cee3f3"/><rect x="284.53" y="85.6" width="7.12" height="4.2" fill="#cee3f3"/><rect x="273.14" y="85.6" width="7.12" height="4.2" fill="#cee3f3"/><rect x="228.98" y="85.47" width="4.69" height="4.2" fill="#cee3f3" style="mix-blend-mode:multiply"/><rect x="249.33" y="93.64" width="7.12" height="4.2" fill="#cee3f3"/><rect x="237.94" y="93.64" width="7.12" height="4.2" fill="#cee3f3"/><rect x="284.53" y="93.64" width="7.12" height="4.2" fill="#cee3f3"/><rect x="273.14" y="93.64" width="7.12" height="4.2" fill="#cee3f3"/><rect x="261.75" y="93.64" width="7.12" height="4.2" fill="#cee3f3"/><rect x="228.98" y="93.48" width="4.69" height="4.2" fill="#cee3f3" style="mix-blend-mode:multiply"/><rect x="249.33" y="101.68" width="7.12" height="4.2" fill="#cee3f3"/><rect x="237.94" y="101.68" width="7.12" height="4.2" fill="#cee3f3"/><rect x="261.75" y="101.68" width="7.12" height="4.2" fill="#cee3f3"/><rect x="284.53" y="101.68" width="7.12" height="4.2" fill="#cee3f3"/><rect x="273.14" y="101.68" width="7.12" height="4.2" fill="#cee3f3"/><rect x="228.98" y="101.49" width="4.69" height="4.2" fill="#cee3f3" style="mix-blend-mode:multiply"/><rect x="249.33" y="109.71" width="7.12" height="4.2" fill="#cee3f3"/><rect x="237.94" y="109.71" width="7.12" height="4.2" fill="#cee3f3"/><rect x="284.53" y="109.71" width="7.12" height="4.2" fill="#cee3f3"/><rect x="273.14" y="109.71" width="7.12" height="4.2" fill="#cee3f3"/><rect x="261.75" y="109.71" width="7.12" height="4.2" fill="#cee3f3"/><rect x="228.98" y="109.59" width="4.69" height="4.2" fill="#cee3f3" style="mix-blend-mode:multiply"/><rect x="249.33" y="117.75" width="7.12" height="4.2" fill="#cee3f3"/><rect x="237.94" y="117.75" width="7.12" height="4.2" fill="#cee3f3"/><rect x="284.53" y="117.75" width="7.12" height="4.2" fill="#cee3f3"/><rect x="273.14" y="117.75" width="7.12" height="4.2" fill="#cee3f3"/><rect x="261.75" y="117.75" width="7.12" height="4.2" fill="#cee3f3"/><rect x="228.98" y="117.68" width="4.69" height="4.2" fill="#cee3f3" style="mix-blend-mode:multiply"/><rect x="249.33" y="125.79" width="7.12" height="4.2" fill="#cee3f3"/><rect x="237.94" y="125.79" width="7.12" height="4.2" fill="#cee3f3"/><rect x="284.53" y="125.79" width="7.12" height="4.2" fill="#cee3f3"/><rect x="273.14" y="125.79" width="7.12" height="4.2" fill="#cee3f3"/><rect x="261.75" y="125.79" width="7.12" height="4.2" fill="#cee3f3"/><rect x="228.98" y="125.69" width="4.69" height="4.2" fill="#cee3f3" style="mix-blend-mode:multiply"/><rect x="249.33" y="133.82" width="7.12" height="4.2" fill="#cee3f3"/><rect x="237.94" y="133.82" width="7.12" height="4.2" fill="#cee3f3"/><rect x="284.53" y="133.82" width="7.12" height="4.2" fill="#cee3f3"/><rect x="273.14" y="133.82" width="7.12" height="4.2" fill="#cee3f3"/><rect x="261.75" y="133.82" width="7.12" height="4.2" fill="#cee3f3"/><rect x="228.98" y="133.76" width="4.69" height="4.2" fill="#cee3f3" style="mix-blend-mode:multiply"/><rect x="249.33" y="141.86" width="7.12" height="4.2" fill="#cee3f3"/><rect x="237.94" y="141.86" width="7.12" height="4.2" fill="#cee3f3"/><rect x="284.53" y="141.86" width="7.12" height="4.2" fill="#cee3f3"/><rect x="273.14" y="141.86" width="7.12" height="4.2" fill="#cee3f3"/><rect x="261.75" y="141.86" width="7.12" height="4.2" fill="#cee3f3"/><rect x="228.98" y="141.74" width="4.69" height="4.2" fill="#cee3f3" style="mix-blend-mode:multiply"/><path d="M79.8,128.73H103V155h1.5V127.23H78.3V155h1.5Z"/><g style="mix-blend-mode:multiply"><path d="M60.33,95.23a1.52,1.52,0,0,0-.36,0,1.74,1.74,0,0,0-1,.59l-12,14a1.76,1.76,0,0,0-.44,1.16v.5c0,2.66,1.26,7,6,8,0,0,5.84-.64,7-1.9.53-.41,1.18-.49,1.6-1a8.11,8.11,0,0,0,6.33,3.16h.34a8.11,8.11,0,0,0,6.33-3.16,8.11,8.11,0,0,0,6.33,3.16h.34a8.11,8.11,0,0,0,6.33-3.16,8.11,8.11,0,0,0,6.33,3.16h.34l0,0a8.15,8.15,0,0,0,6.18-3.34,8.14,8.14,0,0,0,6.5,3.36c6.6,0,8.25-5.2,8.25-8.25V111a1.76,1.76,0,0,0-.44-1.16l-12-14a1.74,1.74,0,0,0-1-.59,2,2,0,0,0-.41,0" fill="#96c8eb"/></g><path d="M55.22,118.44a.76.76,0,0,1-.54-.22.78.78,0,0,1,0-1.07.74.74,0,0,1,1.05,0l0,0a.75.75,0,0,1,0,1.06A.73.73,0,0,1,55.22,118.44Zm-1.94-1.94a.76.76,0,0,1-.54-.22.78.78,0,0,1,0-1.07.73.73,0,0,1,1,0h0a.75.75,0,0,1,0,1.06A.73.73,0,0,1,53.28,116.5Zm-1.94-1.94a.76.76,0,0,1-.54-.22.78.78,0,0,1,0-1.07.73.73,0,0,1,1,0h0a.75.75,0,0,1,0,1.06A.73.73,0,0,1,51.34,114.56Zm-1.94-1.94a.73.73,0,0,1-.52-.21.76.76,0,0,1,0-1.07.74.74,0,0,1,1,0v0a.74.74,0,0,1-.52,1.28Zm-1.94-1.94a.73.73,0,0,1-.52-.21.76.76,0,0,1,0-1.07.74.74,0,0,1,1,0v0a.74.74,0,0,1-.52,1.28Z"/><path d="M51,118.82a.74.74,0,0,1-.53-.23.75.75,0,0,1,0-1.06.74.74,0,0,1,1.05,0l0,0a.75.75,0,0,1,0,1.06A.77.77,0,0,1,51,118.82Zm-1.94-1.94a.74.74,0,0,1-.53-.23.75.75,0,0,1,0-1.06.74.74,0,0,1,1.05,0l0,0a.75.75,0,0,1,0,1.06A.77.77,0,0,1,49.07,116.88Zm-1.94-1.94a.75.75,0,0,1-.54-1.28.73.73,0,0,1,1,0l0,0a.74.74,0,0,1,0,1A.76.76,0,0,1,47.13,114.94Z"/><path d="M93.45,120.11a.7.7,0,0,1-.52-.22.75.75,0,0,1,0-1.06.73.73,0,0,1,1,0h0a.75.75,0,0,1,0,1.06A.74.74,0,0,1,93.45,120.11Zm-1.94-1.94A.7.7,0,0,1,91,118a.75.75,0,0,1,0-1.06.73.73,0,0,1,1.05,0h0a.75.75,0,0,1,0,1.06A.74.74,0,0,1,91.51,118.17Zm-1.94-1.94a.75.75,0,1,1,.52-1.29v0a.73.73,0,0,1,0,1.05A.72.72,0,0,1,89.57,116.23Zm-1.94-1.94a.76.76,0,0,1-.54-.23A.75.75,0,0,1,88.15,113v0a.73.73,0,0,1,0,1A.72.72,0,0,1,87.63,114.29Zm-1.94-1.94a.7.7,0,0,1-.52-.22.75.75,0,0,1,0-1.06.73.73,0,0,1,1,0h0a.75.75,0,0,1,0,1.06A.74.74,0,0,1,85.69,112.35Zm-1.94-1.94a.7.7,0,0,1-.52-.22.75.75,0,0,1,0-1.06.73.73,0,0,1,1,0h0a.75.75,0,0,1,0,1.06A.74.74,0,0,1,83.75,110.41Zm-1.94-1.94a.76.76,0,0,1-.54-.23.75.75,0,0,1,1.06-1.06v0a.73.73,0,0,1,0,1A.72.72,0,0,1,81.81,108.47Zm-1.94-1.94a.76.76,0,0,1-.54-.23.75.75,0,0,1,1.06-1.06v0a.73.73,0,0,1,0,1A.72.72,0,0,1,79.87,106.53Zm-1.94-1.94a.73.73,0,0,1-.52-.21.77.77,0,0,1,0-1.07.73.73,0,0,1,1.05,0h0a.75.75,0,0,1,0,1.06A.74.74,0,0,1,77.93,104.59ZM76,102.65a.7.7,0,0,1-.52-.22.75.75,0,0,1,0-1.06.73.73,0,0,1,1,0h0a.75.75,0,0,1,0,1.06A.74.74,0,0,1,76,102.65Zm-1.94-1.94a.76.76,0,0,1-.54-.23.75.75,0,0,1,1.06-1.06v0a.73.73,0,0,1,0,1A.7.7,0,0,1,74.05,100.71Zm-1.94-1.94a.76.76,0,0,1-.54-.23.75.75,0,0,1,1.06-1.06v0a.75.75,0,0,1,0,1.06A.73.73,0,0,1,72.11,98.77Zm-1.94-1.94a.76.76,0,0,1-.54-.23.75.75,0,0,1,1.06-1.06v0a.75.75,0,0,1,0,1.06A.73.73,0,0,1,70.17,96.83Z"/><path d="M85.36,116.6a.73.73,0,0,1-.52-.21.75.75,0,0,1,1-1.09v0a.74.74,0,0,1-.52,1.28Zm-1.94-1.94a.73.73,0,0,1-.52-.21.75.75,0,0,1,1-1.09v0a.74.74,0,0,1-.52,1.28Zm-1.94-1.94a.76.76,0,0,1-.54-.22.78.78,0,0,1,0-1.07.73.73,0,0,1,1,0h0a.75.75,0,0,1,0,1.06A.73.73,0,0,1,81.48,112.72Zm-1.94-1.94a.76.76,0,0,1-.54-.22.78.78,0,0,1,0-1.07.73.73,0,0,1,1,0h0a.75.75,0,0,1,0,1.06A.73.73,0,0,1,79.54,110.78Zm-1.94-1.94a.75.75,0,0,1-.54-1.27.74.74,0,0,1,1,0v0a.74.74,0,0,1-.52,1.28Zm-1.94-1.94a.75.75,0,0,1-.54-1.27.74.74,0,0,1,1,0v0a.74.74,0,0,1-.52,1.28ZM73.72,105a.75.75,0,0,1-.54-1.27.73.73,0,0,1,1,0h0a.74.74,0,0,1-.52,1.28ZM71.78,103a.73.73,0,0,1-.53-.22.77.77,0,0,1,0-1.07.73.73,0,0,1,1,0h0a.75.75,0,0,1,0,1.06A.73.73,0,0,1,71.78,103Zm-1.94-1.93a.74.74,0,0,1-.53-.23.77.77,0,0,1,0-1.07.73.73,0,0,1,1,0h0a.76.76,0,0,1-.54,1.28ZM67.9,99.15a.76.76,0,0,1-.52-.22.75.75,0,0,1,0-1.06.73.73,0,0,1,1,0h0a.75.75,0,0,1,0,1.06A.76.76,0,0,1,67.9,99.15ZM66,97.2a.75.75,0,0,1-.54-1.27.73.73,0,0,1,1,0h0A.74.74,0,0,1,66,97.2Z"/><path d="M83.09,118.92a.75.75,0,0,1-.54-1.28.74.74,0,0,1,1,0l0,0a.75.75,0,0,1-.53,1.28ZM81.15,117a.75.75,0,0,1-.54-1.28.74.74,0,0,1,1,0l0,0a.75.75,0,0,1-.53,1.28ZM79.21,115a.73.73,0,0,1-.53-.22.77.77,0,0,1,0-1.07.73.73,0,0,1,1,0h0a.75.75,0,0,1,0,1.06A.77.77,0,0,1,79.21,115Zm-1.94-1.94a.73.73,0,0,1-.53-.22.77.77,0,0,1,0-1.07.73.73,0,0,1,1.05,0h0a.75.75,0,0,1,0,1.06A.77.77,0,0,1,77.27,113.1Zm-1.94-1.94a.75.75,0,0,1-.54-1.28.74.74,0,0,1,1,0l0,0a.75.75,0,0,1-.53,1.28Zm-1.94-1.94a.75.75,0,0,1-.54-1.28.74.74,0,0,1,1.05,0l0,0a.75.75,0,0,1-.53,1.28Zm-1.94-1.94a.75.75,0,0,1-.54-1.28.74.74,0,0,1,1,0l0,0a.75.75,0,0,1-.53,1.28Zm-1.94-1.94a.74.74,0,0,1-.53-.22.77.77,0,0,1,0-1.07.73.73,0,0,1,1,0h0a.75.75,0,0,1,0,1.06A.77.77,0,0,1,69.51,105.34Zm-1.94-1.94a.74.74,0,0,1-.53-.22.77.77,0,0,1,0-1.07.73.73,0,0,1,1,0h0a.75.75,0,0,1,0,1.06A.77.77,0,0,1,67.57,103.4Zm-1.94-1.94a.75.75,0,0,1-.54-1.28.74.74,0,0,1,1,0l0,0a.75.75,0,0,1-.53,1.28Zm-1.94-1.94a.75.75,0,0,1-.54-1.28.74.74,0,0,1,1.05,0l0,0a.75.75,0,0,1-.53,1.28Zm-1.94-1.94a.74.74,0,0,1-.53-.22.77.77,0,0,1,0-1.07.73.73,0,0,1,1.05,0h0a.75.75,0,0,1,0,1.06A.77.77,0,0,1,61.75,97.58Z"/><path d="M78.89,119.3a.77.77,0,0,1-.53-.21.77.77,0,0,1,0-1.07.73.73,0,0,1,1,0l0,0a.75.75,0,0,1-.52,1.28ZM77,117.36a.76.76,0,0,1-.54-.23.75.75,0,0,1,1.06-1.06v0a.75.75,0,0,1,0,1.06A.77.77,0,0,1,77,117.36ZM75,115.42a.76.76,0,0,1-.54-.23.75.75,0,0,1,1.06-1.06v0a.75.75,0,0,1,0,1.06A.77.77,0,0,1,75,115.42Zm-1.94-1.94a.77.77,0,0,1-.53-.21.77.77,0,0,1,0-1.07.73.73,0,0,1,1,0l0,0a.75.75,0,0,1-.52,1.28Zm-1.94-1.94a.73.73,0,0,1-.52-.21.76.76,0,0,1,0-1.07.73.73,0,0,1,1,0l0,0a.75.75,0,0,1-.52,1.28Zm-1.94-1.94a.77.77,0,0,1-.53-.21.77.77,0,0,1,0-1.07.74.74,0,0,1,1,0l0,0a.75.75,0,0,1-.52,1.28Zm-1.94-1.94a.76.76,0,0,1-.54-.23.75.75,0,0,1,1.06-1.06v0a.75.75,0,0,1,0,1.06A.77.77,0,0,1,67.25,107.66Zm-1.94-1.94a.76.76,0,0,1-.54-.23.75.75,0,0,1,1.06-1.06v0a.75.75,0,0,1,0,1.06A.77.77,0,0,1,65.31,105.72Zm-1.94-1.94a.73.73,0,0,1-.52-.21.77.77,0,0,1,0-1.07.73.73,0,0,1,1,0l0,0a.75.75,0,0,1-.52,1.28Zm-1.94-1.94a.73.73,0,0,1-.52-.21.77.77,0,0,1,0-1.07.73.73,0,0,1,1,0l0,0a.75.75,0,0,1-.52,1.28ZM59.49,99.9a.76.76,0,0,1-.54-.23A.75.75,0,0,1,60,98.61v0a.74.74,0,0,1-.53,1.27Z"/><path d="M72.74,117.74a.76.76,0,0,1-.54-.23.77.77,0,0,1,0-1.07.75.75,0,0,1,1.05,0v0a.73.73,0,0,1,0,1A.7.7,0,0,1,72.74,117.74ZM70.8,115.8a.7.7,0,0,1-.52-.22.75.75,0,0,1,0-1.06.73.73,0,0,1,1,0h0a.75.75,0,0,1,0,1.06A.78.78,0,0,1,70.8,115.8Zm-1.94-1.94a.7.7,0,0,1-.52-.22.75.75,0,0,1,0-1.06.72.72,0,0,1,1,0h0a.75.75,0,0,1,0,1.06A.78.78,0,0,1,68.86,113.86Zm-1.94-1.94a.7.7,0,0,1-.52-.22.75.75,0,0,1,0-1.06.73.73,0,0,1,1.05,0h0a.75.75,0,0,1,0,1.06A.78.78,0,0,1,66.92,111.92ZM65,110a.78.78,0,0,1-.54-.23.75.75,0,0,1,0-1.06.74.74,0,0,1,1,0l0,0a.74.74,0,0,1,0,1.05A.7.7,0,0,1,65,110ZM63,108a.75.75,0,0,1-.53-1.29.74.74,0,0,1,1.05,0l0,0a.74.74,0,0,1,0,1A.7.7,0,0,1,63,108ZM61.1,106.1a.7.7,0,0,1-.52-.22.75.75,0,0,1,0-1.06.73.73,0,0,1,1,0h0a.75.75,0,0,1,0,1.06A.78.78,0,0,1,61.1,106.1Zm-1.94-1.94a.7.7,0,0,1-.52-.22.75.75,0,0,1,0-1.06.73.73,0,0,1,1.05,0h0a.75.75,0,0,1,0,1.06A.78.78,0,0,1,59.16,104.16Zm-1.94-1.94a.78.78,0,0,1-.54-.23.75.75,0,0,1,0-1.06.74.74,0,0,1,1.05,0l0,0a.75.75,0,0,1,0,1.06A.73.73,0,0,1,57.22,102.22Z"/><path d="M70.47,120.05a.73.73,0,0,1-.53-.22.77.77,0,0,1,0-1.07.73.73,0,0,1,1,0h0a.75.75,0,0,1,0,1.06A.73.73,0,0,1,70.47,120.05Zm-1.94-1.94a.75.75,0,0,1-.54-1.27.74.74,0,0,1,1.05,0v0a.74.74,0,0,1-.52,1.28Zm-1.94-1.94a.75.75,0,0,1-.54-1.27.74.74,0,0,1,1,0v0a.74.74,0,0,1-.52,1.28Zm-1.94-1.94a.75.75,0,0,1-.54-1.27.74.74,0,0,1,1,0v0a.74.74,0,0,1-.52,1.28Zm-1.94-1.94a.73.73,0,0,1-.53-.22.77.77,0,0,1,0-1.07.73.73,0,0,1,1,0h0a.75.75,0,0,1,0,1.06A.73.73,0,0,1,62.71,112.29Zm-1.94-1.94a.73.73,0,0,1-.53-.22.77.77,0,0,1,0-1.07.73.73,0,0,1,1,0h0a.75.75,0,0,1,0,1.06A.73.73,0,0,1,60.77,110.35Zm-1.94-1.94a.75.75,0,0,1-.54-1.27.74.74,0,0,1,1.05,0v0a.74.74,0,0,1-.52,1.28Zm-1.94-1.94a.75.75,0,0,1-.54-1.27.74.74,0,0,1,1,0v0a.74.74,0,0,1-.52,1.28ZM55,104.53a.73.73,0,0,1-.53-.22.77.77,0,0,1,0-1.07.73.73,0,0,1,1,0h0a.75.75,0,0,1,0,1.06A.73.73,0,0,1,55,104.53Z"/><path d="M66.27,120.43a.77.77,0,0,1-.53-.21.77.77,0,0,1,0-1.07.74.74,0,0,1,1,0l0,0a.75.75,0,0,1,0,1.06A.74.74,0,0,1,66.27,120.43Zm-1.94-1.94a.77.77,0,0,1-.53-.21.77.77,0,0,1,0-1.07.74.74,0,0,1,1,0l0,0a.75.75,0,0,1,0,1.06A.74.74,0,0,1,64.33,118.49Zm-1.94-1.94a.77.77,0,0,1-.53-.21.77.77,0,0,1,0-1.07.74.74,0,0,1,1,0l0,0a.75.75,0,0,1,0,1.06A.74.74,0,0,1,62.39,116.55Zm-2-1.94a.74.74,0,0,1-.53-.22.77.77,0,0,1,0-1.07.75.75,0,0,1,1.06,0h0a.75.75,0,0,1,0,1.06A.77.77,0,0,1,60.44,114.61Zm-1.94-1.94a.74.74,0,0,1-.53-.22.77.77,0,0,1,0-1.07.73.73,0,0,1,1.05,0h0a.75.75,0,0,1,0,1.06A.77.77,0,0,1,58.5,112.67Zm-1.93-1.94a.77.77,0,0,1-.53-.21.77.77,0,0,1,0-1.07.74.74,0,0,1,1,0l0,0a.75.75,0,0,1,0,1.06A.74.74,0,0,1,56.57,110.73Zm-1.94-1.94a.77.77,0,0,1-.53-.21.77.77,0,0,1,0-1.07.74.74,0,0,1,1.05,0l0,0a.75.75,0,0,1,0,1.06A.74.74,0,0,1,54.63,108.79Zm-1.94-1.94a.75.75,0,0,1-.54-.22.76.76,0,0,1,0-1.07.73.73,0,0,1,1.05,0h0a.75.75,0,0,1,0,1.06A.77.77,0,0,1,52.69,106.85Z"/><path d="M58.18,116.93a.76.76,0,0,1-.54-.23.75.75,0,0,1,1.06-1.06v0a.74.74,0,0,1-.53,1.27ZM56.24,115a.76.76,0,0,1-.54-.23.75.75,0,0,1,1.06-1.06v0a.74.74,0,0,1-.53,1.27Zm-1.94-1.94a.73.73,0,0,1-.52-.21.77.77,0,0,1,0-1.07.73.73,0,0,1,1,0l0,0a.75.75,0,0,1-.52,1.28Zm-1.94-1.94a.73.73,0,0,1-.52-.21.77.77,0,0,1,0-1.07.73.73,0,0,1,1,0l0,0a.75.75,0,0,1-.52,1.28Zm-1.94-1.94a.73.73,0,0,1-.52-.21.77.77,0,0,1,0-1.07.74.74,0,0,1,1.05,0l0,0a.75.75,0,0,1-.52,1.28Z"/><path d="M112.87,112a.75.75,0,0,1-.53-1.29.73.73,0,0,1,1,0h0a.75.75,0,0,1,0,1.06A.73.73,0,0,1,112.87,112Zm-1.94-1.94a.73.73,0,0,1-.52-.21.76.76,0,0,1,0-1.07.74.74,0,0,1,1,0v0a.74.74,0,0,1-.52,1.28ZM109,108.14a.73.73,0,0,1-.52-.21.76.76,0,0,1,0-1.07.74.74,0,0,1,1,0v0a.74.74,0,0,1-.52,1.28Zm-1.94-1.94a.76.76,0,0,1-.54-.22.78.78,0,0,1,0-1.07.73.73,0,0,1,1,0h0a.75.75,0,0,1,0,1.06A.73.73,0,0,1,107.05,106.2Zm-1.94-1.94a.75.75,0,0,1-.53-1.29.73.73,0,0,1,1,0h0a.75.75,0,0,1,0,1.06A.73.73,0,0,1,105.11,104.26Zm-1.94-1.94a.73.73,0,0,1-.52-.21.76.76,0,0,1,0-1.07.74.74,0,0,1,1.05,0v0a.74.74,0,0,1-.52,1.28Zm-1.94-1.94a.73.73,0,0,1-.52-.21.76.76,0,0,1,0-1.07.74.74,0,0,1,1,0v0a.74.74,0,0,1-.52,1.28Zm-1.94-1.94a.73.73,0,0,1-.52-.21.76.76,0,0,1,0-1.07.74.74,0,0,1,1,0v0a.74.74,0,0,1-.52,1.28ZM97.35,96.5a.73.73,0,0,1-.53-.22.77.77,0,0,1,0-1.07.73.73,0,0,1,1.05,0h0a.75.75,0,0,1,0,1.06A.73.73,0,0,1,97.35,96.5Z"/><path d="M112.54,116.28a.74.74,0,0,1-.53-.23.75.75,0,0,1,0-1.06.74.74,0,0,1,1,0l0,0a.75.75,0,0,1,0,1.06A.73.73,0,0,1,112.54,116.28Zm-1.94-1.94a.74.74,0,0,1-.53-.23.75.75,0,0,1,0-1.06.74.74,0,0,1,1.05,0l0,0a.75.75,0,0,1,0,1.06A.73.73,0,0,1,110.6,114.34Zm-1.94-1.94a.75.75,0,0,1-.52-.21.77.77,0,0,1,0-1.07.74.74,0,0,1,1,0l0,0a.74.74,0,0,1,0,1A.76.76,0,0,1,108.66,112.4Zm-1.94-1.94a.75.75,0,0,1-.52-.21.77.77,0,0,1,0-1.07.73.73,0,0,1,1,0l0,0a.74.74,0,0,1,0,1A.76.76,0,0,1,106.72,110.46Zm-1.94-1.94a.74.74,0,0,1-.53-.23.75.75,0,0,1,0-1.06.74.74,0,0,1,1,0l0,0a.75.75,0,0,1,0,1.06A.77.77,0,0,1,104.78,108.52Zm-1.94-1.94a.74.74,0,0,1-.53-.23.75.75,0,0,1,0-1.06.74.74,0,0,1,1,0l0,0a.75.75,0,0,1,0,1.06A.77.77,0,0,1,102.84,106.58Zm-1.94-1.94a.75.75,0,0,1-.54-1.28.73.73,0,0,1,1,0l0,0a.74.74,0,0,1,0,1A.76.76,0,0,1,100.9,104.64ZM99,102.7a.75.75,0,0,1-.54-1.28.74.74,0,0,1,1,0l0,0a.74.74,0,0,1,0,1A.76.76,0,0,1,99,102.7ZM97,100.76a.75.75,0,0,1-.54-1.28.73.73,0,0,1,1,0l0,0a.74.74,0,0,1,0,1A.76.76,0,0,1,97,100.76Zm-1.94-1.94a.74.74,0,0,1-.53-.23.75.75,0,0,1,0-1.06.74.74,0,0,1,1,0l0,0a.75.75,0,0,1,0,1.06A.77.77,0,0,1,95.08,98.82Zm-1.94-1.94a.74.74,0,0,1-.53-.23.75.75,0,0,1,0-1.06.74.74,0,0,1,1,0l0,0a.75.75,0,0,1,0,1.06A.77.77,0,0,1,93.14,96.88Z"/><path d="M110.28,118.6a.76.76,0,0,1-.53-1.3.74.74,0,0,1,1,0v0a.75.75,0,0,1-.53,1.27Zm-1.94-1.94a.76.76,0,0,1-.53-1.3.74.74,0,0,1,1,0v0a.75.75,0,0,1-.53,1.27Zm-1.94-1.94a.74.74,0,0,1-.53-.22.75.75,0,0,1,0-1.06.73.73,0,0,1,1.05,0h0a.75.75,0,0,1,0,1.06A.74.74,0,0,1,106.4,114.72Zm-1.94-1.94a.74.74,0,0,1-.53-.22.75.75,0,0,1,0-1.06.73.73,0,0,1,1,0h0a.75.75,0,0,1,0,1.06A.74.74,0,0,1,104.46,112.78Zm-1.94-1.94a.75.75,0,1,1,.52-1.29v0a.75.75,0,0,1-.53,1.27Zm-1.94-1.94a.75.75,0,1,1,.52-1.29v0a.75.75,0,0,1-.53,1.27ZM98.64,107a.74.74,0,0,1-.53-.22.75.75,0,0,1,0-1.06.73.73,0,0,1,1,0h0a.75.75,0,0,1,0,1.06A.74.74,0,0,1,98.64,107ZM96.7,105a.74.74,0,0,1-.53-.22.75.75,0,0,1,0-1.06.73.73,0,0,1,1,0h0a.75.75,0,0,1,0,1.06A.74.74,0,0,1,96.7,105Zm-1.94-1.94a.74.74,0,0,1-.53-.22.75.75,0,0,1,0-1.06.73.73,0,0,1,1.05,0h0a.75.75,0,0,1,0,1.06A.74.74,0,0,1,94.76,103.08Zm-1.94-1.94a.76.76,0,0,1-.54-.23.75.75,0,0,1,1.06-1.06v0a.75.75,0,0,1-.53,1.27ZM90.88,99.2a.76.76,0,0,1-.54-.23.75.75,0,0,1,1.06-1.06v0a.75.75,0,0,1-.53,1.27Zm-1.94-1.94A.75.75,0,0,1,88.39,96a.73.73,0,0,1,1,0h0a.75.75,0,0,1,0,1.06A.74.74,0,0,1,88.94,97.26Z"/><path d="M106.07,119a.75.75,0,0,1-.54-.22.76.76,0,0,1,0-1.07.73.73,0,0,1,1,0h0a.75.75,0,0,1,0,1.06A.73.73,0,0,1,106.07,119ZM104.13,117a.75.75,0,0,1-.54-.22.76.76,0,0,1,0-1.07.73.73,0,0,1,1.05,0h0a.75.75,0,0,1,0,1.06A.73.73,0,0,1,104.13,117Zm-1.94-1.94a.73.73,0,0,1-.52-.21.75.75,0,0,1,0-1.06.73.73,0,0,1,1,0l0,0a.75.75,0,0,1,0,1.06A.76.76,0,0,1,102.19,115.09Zm-1.94-1.94a.77.77,0,0,1-.53-.21.77.77,0,0,1,0-1.07.74.74,0,0,1,1.05,0l0,0a.75.75,0,0,1,0,1.06A.77.77,0,0,1,100.25,113.15Zm-1.94-1.94a.75.75,0,0,1-.53-1.29.73.73,0,0,1,1,0h0a.75.75,0,0,1,0,1.06A.73.73,0,0,1,98.31,111.21Zm-1.94-1.94a.75.75,0,0,1-.54-.22.77.77,0,0,1,0-1.07.73.73,0,0,1,1,0h0a.75.75,0,0,1,0,1.06A.73.73,0,0,1,96.37,109.27Zm-1.94-1.94a.73.73,0,0,1-.52-.21.75.75,0,0,1,1-1.09v0a.75.75,0,0,1,0,1.06A.76.76,0,0,1,94.43,107.33Zm-1.94-1.94a.73.73,0,0,1-.52-.21.75.75,0,0,1,1-1.09v0a.75.75,0,0,1,0,1.06A.76.76,0,0,1,92.49,105.39Zm-1.94-1.94a.73.73,0,0,1-.52-.21.75.75,0,0,1,1-1.09v0a.75.75,0,0,1,0,1.06A.76.76,0,0,1,90.55,103.45Zm-1.94-1.93a.78.78,0,0,1-.54-.23.77.77,0,0,1,0-1.07.73.73,0,0,1,1,0h0a.75.75,0,0,1,0,1.06A.74.74,0,0,1,88.61,101.52Zm-1.94-2a.75.75,0,0,1-.53-1.29.73.73,0,0,1,1,0h0a.75.75,0,0,1,0,1.06A.73.73,0,0,1,86.67,99.57Zm-1.94-1.93a.76.76,0,0,1-.54-1.28.73.73,0,0,1,1,0h0a.75.75,0,0,1-.52,1.29Z"/><path d="M99.92,117.41a.73.73,0,0,1-.53-.22.77.77,0,0,1,0-1.07.73.73,0,0,1,1,0h0a.75.75,0,0,1,0,1.06A.73.73,0,0,1,99.92,117.41ZM98,115.47a.75.75,0,0,1-.54-1.28.74.74,0,0,1,1,0v0a.74.74,0,0,1-.52,1.28ZM96,113.53a.75.75,0,0,1-.54-1.28.74.74,0,0,1,1,0v0a.74.74,0,0,1-.52,1.28Zm-1.94-1.94a.73.73,0,0,1-.53-.22.77.77,0,0,1,0-1.07.73.73,0,0,1,1.05,0h0a.75.75,0,0,1,0,1.06A.73.73,0,0,1,94.1,111.59Zm-1.94-1.94a.73.73,0,0,1-.53-.22.77.77,0,0,1,0-1.07.73.73,0,0,1,1.05,0h0a.75.75,0,0,1,0,1.06A.73.73,0,0,1,92.16,109.65Zm-1.94-1.94a.75.75,0,0,1-.54-1.28.74.74,0,0,1,1,0v0a.74.74,0,0,1-.52,1.28Zm-1.94-1.94a.75.75,0,1,1,.51-1.3l0,0a.75.75,0,0,1-.53,1.28Zm-1.94-1.94a.73.73,0,0,1-.53-.22.77.77,0,0,1,0-1.07.73.73,0,0,1,1,0h0a.75.75,0,0,1,0,1.06A.73.73,0,0,1,86.34,103.83Zm-1.94-1.94a.73.73,0,0,1-.53-.22.77.77,0,0,1,0-1.07.73.73,0,0,1,1,0h0a.75.75,0,0,1,0,1.06A.73.73,0,0,1,84.4,101.89ZM82.46,100a.75.75,0,0,1-.52-.21.77.77,0,0,1,0-1.07.74.74,0,0,1,1,0l0,0a.75.75,0,0,1-.53,1.28ZM80.52,98A.75.75,0,0,1,80,97.8a.77.77,0,0,1,0-1.07.74.74,0,0,1,1,0l0,0A.75.75,0,0,1,80.52,98Zm-1.94-1.94a.73.73,0,0,1-.53-.22.77.77,0,0,1,0-1.07.73.73,0,0,1,1,0h0a.75.75,0,0,1,0,1.06A.77.77,0,0,1,78.58,96.07Z"/><path d="M95.71,117.79a.75.75,0,0,1-.54-1.28.73.73,0,0,1,1,0l0,0a.74.74,0,0,1,0,1A.76.76,0,0,1,95.71,117.79Zm-1.94-1.94a.75.75,0,0,1-.54-1.28.73.73,0,0,1,1,0l0,0a.74.74,0,0,1,0,1.05A.76.76,0,0,1,93.77,115.85Zm-1.94-1.94a.76.76,0,0,1-.53-1.29.74.74,0,0,1,1,0l0,0a.75.75,0,0,1,0,1.06A.77.77,0,0,1,91.83,113.91ZM89.89,112a.76.76,0,0,1-.53-1.29.74.74,0,0,1,1,0l0,0a.75.75,0,0,1,0,1.06A.77.77,0,0,1,89.89,112ZM88,110a.77.77,0,0,1-.53-.21.77.77,0,0,1,0-1.07.73.73,0,0,1,1,0l0,0a.74.74,0,0,1,0,1A.75.75,0,0,1,88,110ZM86,108.09a.77.77,0,0,1-.53-.21.77.77,0,0,1,0-1.07.73.73,0,0,1,1,0l0,0a.74.74,0,0,1,0,1A.75.75,0,0,1,86,108.09Zm-1.94-1.94a.76.76,0,0,1-.54-.23.75.75,0,0,1,1.06-1.06v0a.75.75,0,0,1,0,1.06A.77.77,0,0,1,84.08,106.15Zm-1.94-1.94a.76.76,0,0,1-.54-.23.75.75,0,0,1,1.06-1.06v0a.75.75,0,0,1,0,1.06A.77.77,0,0,1,82.14,104.21Zm-1.94-1.94a.77.77,0,0,1-.53-.21.77.77,0,0,1,0-1.07.73.73,0,0,1,1,0l0,0a.75.75,0,0,1-.52,1.28Zm-1.94-1.94a.77.77,0,0,1-.53-.21.77.77,0,0,1,0-1.07.73.73,0,0,1,1.05,0l0,0a.75.75,0,0,1-.52,1.28Zm-1.94-1.94a.76.76,0,0,1-.54-.23.75.75,0,0,1,1.06-1.06v0a.75.75,0,0,1,0,1.06A.77.77,0,0,1,76.32,98.39Zm-1.94-1.94a.76.76,0,0,1-.54-.23.75.75,0,0,1,1.06-1.06v0a.75.75,0,0,1,0,1.06A.77.77,0,0,1,74.38,96.45Z"/><path d="M214.14,1V6.67h5v11h-48V84.49H166.2V44H146.1V23.27h-1.5V44h-7.54V23.27h-1.5V44H116.62V84.49H101.75v7.2H107v8.43l-4.08-4.76a2.24,2.24,0,0,0-1.54-.87H60l-.16,0a2.49,2.49,0,0,0-1.39.83l-12,14a2.53,2.53,0,0,0-.63,1.65v.5c0,3,1.36,6.72,5.09,8.27V155h1.5V120.23h0c.17,0,1.66.24,2.39.24h0a8.13,8.13,0,0,0,6.35-2.73,8.74,8.74,0,0,0,6.29,2.73h.34a8.74,8.74,0,0,0,6.33-2.77,8.74,8.74,0,0,0,6.33,2.77h.34a8.74,8.74,0,0,0,6.33-2.77,8.74,8.74,0,0,0,6.33,2.77l.35,0a8.83,8.83,0,0,0,6.15-2.91,8.88,8.88,0,0,0,6.52,2.93c.16,0,.31,0,.46,0V155h1.5V120.3c5.47-.94,7-5.81,7-8.82V111a2.51,2.51,0,0,0-.62-1.64l-6.4-7.46V91.69h65.92V155h1.5V91.69h5.2v-7.2h-8.52V19.21h55.16V155h1.5V17.71H220.6v-11h74.15V155h1.5V6.67h4.88V1Zm-96,44.47H164.7v39H118.12Zm-4.4,64.81a1,1,0,0,1,.25.66v.5c0,.76-.21,7.5-7.5,7.5a7.45,7.45,0,0,1-5.9-3.06l-.6-.81-.6.81a7.39,7.39,0,0,1-5.64,3l-.26,0a7.33,7.33,0,0,1-5.74-2.87l-.59-.75-.59.75A7.32,7.32,0,0,1,80.8,119h-.13l-.2,0a7.33,7.33,0,0,1-5.74-2.87l-.59-.75-.59.75A7.32,7.32,0,0,1,67.8,119h-.13l-.2,0a7.33,7.33,0,0,1-5.74-2.87l-.59-.75-.72.92a6.45,6.45,0,0,1-5.6,2.7c-.51,0-1.73-.16-2.11-.21l-.31-.09v-.62H50.9v0a7.4,7.4,0,0,1-3.59-6.61V111a1,1,0,0,1,.26-.67l12-14a1,1,0,0,1,.49-.32h41.23a1,1,0,0,1,.43.33ZM179.57,86v4.2H103.25V86ZM299.63,5.17h-84V2.54h84Z"/></g></g></svg>