<svg width="25" height="25" xmlns="http://www.w3.org/2000/svg" xmlns:xlink="http://www.w3.org/1999/xlink"><defs><path id="a" d="M.007.537H17.58V21H.007z"/><path id="c" d="M0 21.463h23.579V1H0z"/></defs><g transform="translate(1 2)" fill="none" fill-rule="evenodd"><path d="M7.133 20.308V9.491c.889-1.106 3.959-4.929 5.874-7.329.075-.019.194-.038.349-.038.146 0 .64.023.872.313.193.244.22.721.076 1.344-.813 3.514-.986 4.826-.993 4.881l-.17 1.307 1.319-.039c.006 0 1.669-.05 3.357-.05.97 0 1.747.016 2.309.048 1.374.08 2.136.851 2.329 2.358.069.94-2.218 4.803-4.51 8.022H7.133z" fill="#FFF"/><g transform="translate(6 .463)"><mask id="b" fill="#fff"><use xlink:href="#a"/></mask><path d="M7.355.537c-.524 0-.974.14-1.109.31A3160.33 3160.33 0 01.007 8.633V21v-.03h12.514s5.303-7.3 5.05-9.29c-.255-1.988-1.404-3.224-3.382-3.337a44.36 44.36 0 00-2.373-.051c-1.708 0-3.39.05-3.39.05s.163-1.27.973-4.77C9.953 1.184 8.481.537 7.355.537m-.208 2.788c-.76 3.315-.935 4.593-.953 4.73l-.336 2.616 2.635-.08c.017 0 1.671-.05 3.323-.05.95 0 1.704.017 2.244.048.586.033 1.086.154 1.26 1.25-.189.962-1.935 3.98-3.959 6.882H2.257V9.425c.97-1.207 3.172-3.95 4.89-6.1" fill="#000" mask="url(#b)"/></g><mask id="d" fill="#fff"><use xlink:href="#c"/></mask><path fill="#32DBA3" mask="url(#d)" d="M1.125 20.311h5.996V10.124H1.125z"/><path d="M0 21.436h8.246V9H0v12.437zm2.25-2.25h3.746V11.25H2.25v7.937z" fill="#000" mask="url(#d)"/><path d="M4.916 17.133a.77.77 0 11-1.539 0 .77.77 0 011.539 0" fill="#000" mask="url(#d)"/></g></svg>