<svg width="75" height="75" xmlns="http://www.w3.org/2000/svg" xmlns:xlink="http://www.w3.org/1999/xlink"><defs><path d="M.076 4.182s2.391 8.832 7.273 13.716l6.027-4.469S4.96 4.806 3.61.338" id="a"/><path d="M.076 4.182s2.391 8.832 7.273 13.716l6.027-4.469S4.96 4.806 3.61.338" id="c"/><path d="M.076 4.182s2.391 8.832 7.273 13.716l6.027-4.469S4.96 4.806 3.61.338" id="e"/><path d="M.076 4.182s2.391 8.832 7.273 13.716l6.027-4.469S4.96 4.806 3.61.338" id="g"/><path d="M.076 4.182s2.391 8.832 7.273 13.716l6.027-4.469S4.96 4.806 3.61.338" id="i"/><path d="M.076 4.182s2.391 8.832 7.273 13.716l6.027-4.469S4.96 4.806 3.61.338" id="k"/><path d="M.076 4.182s2.391 8.832 7.273 13.716l6.027-4.469S4.96 4.806 3.61.338" id="m"/><path d="M.076 4.182s2.391 8.832 7.273 13.716l6.027-4.469S4.96 4.806 3.61.338" id="o"/><path d="M.076 4.182s2.391 8.832 7.273 13.716l6.027-4.469S4.96 4.806 3.61.338" id="q"/><path d="M.076 4.182s2.391 8.832 7.273 13.716l6.027-4.469S4.96 4.806 3.61.338" id="s"/><path d="M.076 4.182s2.391 8.832 7.273 13.716l6.027-4.469S4.96 4.806 3.61.338" id="u"/><path d="M.076 4.182s2.391 8.832 7.273 13.716l6.027-4.469S4.96 4.806 3.61.338" id="w"/><path d="M.076 4.182s2.391 8.832 7.273 13.716l6.027-4.469S4.96 4.806 3.61.338" id="y"/><path d="M.076 4.182s2.391 8.832 7.273 13.716l6.027-4.469S4.96 4.806 3.61.338" id="A"/><path d="M.076 4.182s2.391 8.832 7.273 13.716l6.027-4.469S4.96 4.806 3.61.338" id="C"/><path d="M.076 4.182s2.391 8.832 7.273 13.716l6.027-4.469S4.96 4.806 3.61.338" id="E"/><path d="M.076 4.182s2.391 8.832 7.273 13.716l6.027-4.469S4.96 4.806 3.61.338" id="G"/><path d="M.076 4.182s2.391 8.832 7.273 13.716l6.027-4.469S4.96 4.806 3.61.338" id="I"/><path d="M.076 4.182s2.391 8.832 7.273 13.716l6.027-4.469S4.96 4.806 3.61.338" id="K"/><path d="M.076 4.182s2.391 8.832 7.273 13.716l6.027-4.469S4.96 4.806 3.61.338" id="M"/><path d="M.076 4.182s2.391 8.832 7.273 13.716l6.027-4.469S4.96 4.806 3.61.338" id="O"/><path d="M.076 4.182s2.391 8.832 7.273 13.716l6.027-4.469S4.96 4.806 3.61.338" id="Q"/><path d="M.076 4.182s2.391 8.832 7.273 13.716l6.027-4.469S4.96 4.806 3.61.338" id="S"/><path d="M.076 4.182s2.391 8.832 7.273 13.716l6.027-4.469S4.96 4.806 3.61.338" id="U"/><path d="M.076 4.182s2.391 8.832 7.273 13.716l6.027-4.469S4.96 4.806 3.61.338" id="W"/><path d="M.076 4.182s2.391 8.832 7.273 13.716l6.027-4.469S4.96 4.806 3.61.338" id="Y"/><path d="M.076 4.182s2.391 8.832 7.273 13.716l6.027-4.469S4.96 4.806 3.61.338" id="aa"/><path d="M.076 4.182s2.391 8.832 7.273 13.716l6.027-4.469S4.96 4.806 3.61.338" id="ac"/><path d="M.076 4.182s2.391 8.832 7.273 13.716l6.027-4.469S4.96 4.806 3.61.338" id="ae"/><path d="M.076 4.182s2.391 8.832 7.273 13.716l6.027-4.469S4.96 4.806 3.61.338" id="ag"/><path d="M.076 4.182s2.391 8.832 7.273 13.716l6.027-4.469S4.96 4.806 3.61.338" id="ai"/><path d="M.076 4.182s2.391 8.832 7.273 13.716l6.027-4.469S4.96 4.806 3.61.338" id="ak"/><path d="M.076 4.182s2.391 8.832 7.273 13.716l6.027-4.469S4.96 4.806 3.61.338" id="am"/><path d="M.076 4.182s2.391 8.832 7.273 13.716l6.027-4.469S4.96 4.806 3.61.338" id="ao"/><path d="M.076 4.182s2.391 8.832 7.273 13.716l6.027-4.469S4.96 4.806 3.61.338" id="aq"/><path d="M.076 4.182s2.391 8.832 7.273 13.716l6.027-4.469S4.96 4.806 3.61.338" id="as"/><path d="M.076 4.182s2.391 8.832 7.273 13.716l6.027-4.469S4.96 4.806 3.61.338" id="au"/><path d="M.076 4.182s2.391 8.832 7.273 13.716l6.027-4.469S4.96 4.806 3.61.338" id="aw"/><path d="M.076 4.182s2.391 8.832 7.273 13.716l6.027-4.469S4.96 4.806 3.61.338" id="ay"/><path d="M.076 4.182s2.391 8.832 7.273 13.716l6.027-4.469S4.96 4.806 3.61.338" id="aA"/><path d="M.076 4.182s2.391 8.832 7.273 13.716l6.027-4.469S4.96 4.806 3.61.338" id="aC"/><path d="M.076 4.182s2.391 8.832 7.273 13.716l6.027-4.469S4.96 4.806 3.61.338" id="aE"/><path d="M.076 4.182s2.391 8.832 7.273 13.716l6.027-4.469S4.96 4.806 3.61.338" id="aG"/><path d="M.076 4.182s2.391 8.832 7.273 13.716l6.027-4.469S4.96 4.806 3.61.338" id="aI"/><path d="M.076 4.182s2.391 8.832 7.273 13.716l6.027-4.469S4.96 4.806 3.61.338" id="aK"/><path d="M.076 4.182s2.391 8.832 7.273 13.716l6.027-4.469S4.96 4.806 3.61.338" id="aM"/><path d="M.076 4.182s2.391 8.832 7.273 13.716l6.027-4.469S4.96 4.806 3.61.338" id="aO"/><path d="M.076 4.182s2.391 8.832 7.273 13.716l6.027-4.469S4.96 4.806 3.61.338" id="aQ"/><path d="M.076 4.182s2.391 8.832 7.273 13.716l6.027-4.469S4.96 4.806 3.61.338" id="aS"/><path d="M.076 4.182s2.391 8.832 7.273 13.716l6.027-4.469S4.96 4.806 3.61.338" id="aU"/><path d="M.076 4.182s2.391 8.832 7.273 13.716l6.027-4.469S4.96 4.806 3.61.338" id="aW"/><path d="M.076 4.182s2.391 8.832 7.273 13.716l6.027-4.469S4.96 4.806 3.61.338" id="aY"/><path d="M.076 4.182s2.391 8.832 7.273 13.716l6.027-4.469S4.96 4.806 3.61.338" id="ba"/><path d="M.076 4.182s2.391 8.832 7.273 13.716l6.027-4.469S4.96 4.806 3.61.338" id="bc"/><path d="M.076 4.182s2.391 8.832 7.273 13.716l6.027-4.469S4.96 4.806 3.61.338" id="be"/><path d="M.076 4.182s2.391 8.832 7.273 13.716l6.027-4.469S4.96 4.806 3.61.338" id="bg"/><path d="M.076 4.182s2.391 8.832 7.273 13.716l6.027-4.469S4.96 4.806 3.61.338" id="bi"/><path d="M.076 4.182s2.391 8.832 7.273 13.716l6.027-4.469S4.96 4.806 3.61.338" id="bk"/><path d="M.076 4.182s2.391 8.832 7.273 13.716l6.027-4.469S4.96 4.806 3.61.338" id="bm"/><path d="M.076 4.182s2.391 8.832 7.273 13.716l6.027-4.469S4.96 4.806 3.61.338" id="bo"/><path d="M.076 4.182s2.391 8.832 7.273 13.716l6.027-4.469S4.96 4.806 3.61.338" id="bq"/><path d="M.076 4.182s2.391 8.832 7.273 13.716l6.027-4.469S4.96 4.806 3.61.338" id="bs"/><path d="M.076 4.182s2.391 8.832 7.273 13.716l6.027-4.469S4.96 4.806 3.61.338" id="bu"/><path d="M.076 4.182s2.391 8.832 7.273 13.716l6.027-4.469S4.96 4.806 3.61.338" id="bw"/><path d="M.934 13.261l6.026 4.468c4.883-4.884 7.274-13.715 7.274-13.715L10.7.169C9.349 4.636.934 13.261.934 13.261" id="by"/><path d="M.934 13.261l6.026 4.468c4.883-4.884 7.274-13.715 7.274-13.715L10.7.169C9.349 4.636.934 13.261.934 13.261" id="bA"/><path d="M.934 13.261l6.026 4.468c4.883-4.884 7.274-13.715 7.274-13.715L10.7.169C9.349 4.636.934 13.261.934 13.261" id="bC"/><path d="M.934 13.261l6.026 4.468c4.883-4.884 7.274-13.715 7.274-13.715L10.7.169C9.349 4.636.934 13.261.934 13.261" id="bE"/><path d="M.934 13.261l6.026 4.468c4.883-4.884 7.274-13.715 7.274-13.715L10.7.169C9.349 4.636.934 13.261.934 13.261" id="bG"/><path d="M.934 13.261l6.026 4.468c4.883-4.884 7.274-13.715 7.274-13.715L10.7.169C9.349 4.636.934 13.261.934 13.261" id="bI"/><path d="M.934 13.261l6.026 4.468c4.883-4.884 7.274-13.715 7.274-13.715L10.7.169C9.349 4.636.934 13.261.934 13.261" id="bK"/><path d="M.934 13.261l6.026 4.468c4.883-4.884 7.274-13.715 7.274-13.715L10.7.169C9.349 4.636.934 13.261.934 13.261" id="bM"/><path d="M.934 13.261l6.026 4.468c4.883-4.884 7.274-13.715 7.274-13.715L10.7.169C9.349 4.636.934 13.261.934 13.261" id="bO"/><path d="M.934 13.261l6.026 4.468c4.883-4.884 7.274-13.715 7.274-13.715L10.7.169C9.349 4.636.934 13.261.934 13.261" id="bQ"/><path d="M.934 13.261l6.026 4.468c4.883-4.884 7.274-13.715 7.274-13.715L10.7.169C9.349 4.636.934 13.261.934 13.261" id="bS"/><path d="M.934 13.261l6.026 4.468c4.883-4.884 7.274-13.715 7.274-13.715L10.7.169C9.349 4.636.934 13.261.934 13.261" id="bU"/><path d="M.934 13.261l6.026 4.468c4.883-4.884 7.274-13.715 7.274-13.715L10.7.169C9.349 4.636.934 13.261.934 13.261" id="bW"/><path d="M.934 13.261l6.026 4.468c4.883-4.884 7.274-13.715 7.274-13.715L10.7.169C9.349 4.636.934 13.261.934 13.261" id="bY"/><path d="M.934 13.261l6.026 4.468c4.883-4.884 7.274-13.715 7.274-13.715L10.7.169C9.349 4.636.934 13.261.934 13.261" id="ca"/><path d="M.934 13.261l6.026 4.468c4.883-4.884 7.274-13.715 7.274-13.715L10.7.169C9.349 4.636.934 13.261.934 13.261" id="cc"/><path d="M.934 13.261l6.026 4.468c4.883-4.884 7.274-13.715 7.274-13.715L10.7.169C9.349 4.636.934 13.261.934 13.261" id="ce"/><path d="M.934 13.261l6.026 4.468c4.883-4.884 7.274-13.715 7.274-13.715L10.7.169C9.349 4.636.934 13.261.934 13.261" id="cg"/><path d="M.934 13.261l6.026 4.468c4.883-4.884 7.274-13.715 7.274-13.715L10.7.169C9.349 4.636.934 13.261.934 13.261" id="ci"/><path d="M.934 13.261l6.026 4.468c4.883-4.884 7.274-13.715 7.274-13.715L10.7.169C9.349 4.636.934 13.261.934 13.261" id="ck"/><path d="M.934 13.261l6.026 4.468c4.883-4.884 7.274-13.715 7.274-13.715L10.7.169C9.349 4.636.934 13.261.934 13.261" id="cm"/><path d="M.934 13.261l6.026 4.468c4.883-4.884 7.274-13.715 7.274-13.715L10.7.169C9.349 4.636.934 13.261.934 13.261" id="co"/><path d="M.934 13.261l6.026 4.468c4.883-4.884 7.274-13.715 7.274-13.715L10.7.169C9.349 4.636.934 13.261.934 13.261" id="cq"/><path d="M.934 13.261l6.026 4.468c4.883-4.884 7.274-13.715 7.274-13.715L10.7.169C9.349 4.636.934 13.261.934 13.261" id="cs"/><path d="M.934 13.261l6.026 4.468c4.883-4.884 7.274-13.715 7.274-13.715L10.7.169C9.349 4.636.934 13.261.934 13.261" id="cu"/><path d="M.934 13.261l6.026 4.468c4.883-4.884 7.274-13.715 7.274-13.715L10.7.169C9.349 4.636.934 13.261.934 13.261" id="cw"/><path d="M.934 13.261l6.026 4.468c4.883-4.884 7.274-13.715 7.274-13.715L10.7.169C9.349 4.636.934 13.261.934 13.261" id="cy"/><path d="M.934 13.261l6.026 4.468c4.883-4.884 7.274-13.715 7.274-13.715L10.7.169C9.349 4.636.934 13.261.934 13.261" id="cA"/><path d="M.934 13.261l6.026 4.468c4.883-4.884 7.274-13.715 7.274-13.715L10.7.169C9.349 4.636.934 13.261.934 13.261" id="cC"/><path d="M.934 13.261l6.026 4.468c4.883-4.884 7.274-13.715 7.274-13.715L10.7.169C9.349 4.636.934 13.261.934 13.261" id="cE"/><path d="M.934 13.261l6.026 4.468c4.883-4.884 7.274-13.715 7.274-13.715L10.7.169C9.349 4.636.934 13.261.934 13.261" id="cG"/><path d="M.934 13.261l6.026 4.468c4.883-4.884 7.274-13.715 7.274-13.715L10.7.169C9.349 4.636.934 13.261.934 13.261" id="cI"/><path d="M.934 13.261l6.026 4.468c4.883-4.884 7.274-13.715 7.274-13.715L10.7.169C9.349 4.636.934 13.261.934 13.261" id="cK"/><path d="M.934 13.261l6.026 4.468c4.883-4.884 7.274-13.715 7.274-13.715L10.7.169C9.349 4.636.934 13.261.934 13.261" id="cM"/><path d="M.934 13.261l6.026 4.468c4.883-4.884 7.274-13.715 7.274-13.715L10.7.169C9.349 4.636.934 13.261.934 13.261" id="cO"/><path d="M.934 13.261l6.026 4.468c4.883-4.884 7.274-13.715 7.274-13.715L10.7.169C9.349 4.636.934 13.261.934 13.261" id="cQ"/><path d="M.934 13.261l6.026 4.468c4.883-4.884 7.274-13.715 7.274-13.715L10.7.169C9.349 4.636.934 13.261.934 13.261" id="cS"/><path d="M.934 13.261l6.026 4.468c4.883-4.884 7.274-13.715 7.274-13.715L10.7.169C9.349 4.636.934 13.261.934 13.261" id="cU"/><path d="M.934 13.261l6.026 4.468c4.883-4.884 7.274-13.715 7.274-13.715L10.7.169C9.349 4.636.934 13.261.934 13.261" id="cW"/><path d="M.934 13.261l6.026 4.468c4.883-4.884 7.274-13.715 7.274-13.715L10.7.169C9.349 4.636.934 13.261.934 13.261" id="cY"/><path d="M.934 13.261l6.026 4.468c4.883-4.884 7.274-13.715 7.274-13.715L10.7.169C9.349 4.636.934 13.261.934 13.261" id="da"/><path d="M.934 13.261l6.026 4.468c4.883-4.884 7.274-13.715 7.274-13.715L10.7.169C9.349 4.636.934 13.261.934 13.261" id="dc"/><path d="M.934 13.261l6.026 4.468c4.883-4.884 7.274-13.715 7.274-13.715L10.7.169C9.349 4.636.934 13.261.934 13.261" id="de"/><path d="M.934 13.261l6.026 4.468c4.883-4.884 7.274-13.715 7.274-13.715L10.7.169C9.349 4.636.934 13.261.934 13.261" id="dg"/><path d="M.934 13.261l6.026 4.468c4.883-4.884 7.274-13.715 7.274-13.715L10.7.169C9.349 4.636.934 13.261.934 13.261" id="di"/><path d="M.934 13.261l6.026 4.468c4.883-4.884 7.274-13.715 7.274-13.715L10.7.169C9.349 4.636.934 13.261.934 13.261" id="dk"/><path d="M.934 13.261l6.026 4.468c4.883-4.884 7.274-13.715 7.274-13.715L10.7.169C9.349 4.636.934 13.261.934 13.261" id="dm"/><path d="M.934 13.261l6.026 4.468c4.883-4.884 7.274-13.715 7.274-13.715L10.7.169C9.349 4.636.934 13.261.934 13.261" id="do"/><path d="M.934 13.261l6.026 4.468c4.883-4.884 7.274-13.715 7.274-13.715L10.7.169C9.349 4.636.934 13.261.934 13.261" id="dq"/><path d="M.934 13.261l6.026 4.468c4.883-4.884 7.274-13.715 7.274-13.715L10.7.169C9.349 4.636.934 13.261.934 13.261" id="ds"/><path d="M.934 13.261l6.026 4.468c4.883-4.884 7.274-13.715 7.274-13.715L10.7.169C9.349 4.636.934 13.261.934 13.261" id="du"/><path d="M.934 13.261l6.026 4.468c4.883-4.884 7.274-13.715 7.274-13.715L10.7.169C9.349 4.636.934 13.261.934 13.261" id="dw"/><path d="M.934 13.261l6.026 4.468c4.883-4.884 7.274-13.715 7.274-13.715L10.7.169C9.349 4.636.934 13.261.934 13.261" id="dy"/><path d="M.934 13.261l6.026 4.468c4.883-4.884 7.274-13.715 7.274-13.715L10.7.169C9.349 4.636.934 13.261.934 13.261" id="dA"/><path d="M.934 13.261l6.026 4.468c4.883-4.884 7.274-13.715 7.274-13.715L10.7.169C9.349 4.636.934 13.261.934 13.261" id="dC"/><path d="M.934 13.261l6.026 4.468c4.883-4.884 7.274-13.715 7.274-13.715L10.7.169C9.349 4.636.934 13.261.934 13.261" id="dE"/><path d="M.934 13.261l6.026 4.468c4.883-4.884 7.274-13.715 7.274-13.715L10.7.169C9.349 4.636.934 13.261.934 13.261" id="dG"/><path d="M.934 13.261l6.026 4.468c4.883-4.884 7.274-13.715 7.274-13.715L10.7.169C9.349 4.636.934 13.261.934 13.261" id="dI"/><path d="M.934 13.261l6.026 4.468c4.883-4.884 7.274-13.715 7.274-13.715L10.7.169C9.349 4.636.934 13.261.934 13.261" id="dK"/><path d="M.934 13.261l6.026 4.468c4.883-4.884 7.274-13.715 7.274-13.715L10.7.169C9.349 4.636.934 13.261.934 13.261" id="dM"/><path d="M.934 13.261l6.026 4.468c4.883-4.884 7.274-13.715 7.274-13.715L10.7.169C9.349 4.636.934 13.261.934 13.261" id="dO"/><path d="M.934 13.261l6.026 4.468c4.883-4.884 7.274-13.715 7.274-13.715L10.7.169C9.349 4.636.934 13.261.934 13.261" id="dQ"/><path d="M.934 13.261l6.026 4.468c4.883-4.884 7.274-13.715 7.274-13.715L10.7.169C9.349 4.636.934 13.261.934 13.261" id="dS"/><path d="M.934 13.261l6.026 4.468c4.883-4.884 7.274-13.715 7.274-13.715L10.7.169C9.349 4.636.934 13.261.934 13.261" id="dU"/></defs><g fill="none" fill-rule="evenodd"><path fill="#FFF" fill-rule="nonzero" d="M0 0h75v75H0z"/><path fill="#FFF" d="M40.331 63.29h-27.53V19.406l12.273-3.014"/><path stroke="#000" d="M40.331 63.29h-27.53V19.406l12.273-3.014"/><path fill="#FFF" d="M35.064 63.29h27.53V19.406l-12.273-3.014"/><path stroke="#000" d="M35.064 63.29h27.53V19.406l-12.273-3.014"/><path d="M37.418 63.426V25.755v37.671z" fill="#FFF"/><path d="M37.418 25.755v37.67" stroke="#000"/><path d="M27.5 12.059h19.759-19.76z" fill="#FF6C40"/><path d="M27.5 12.058h19.758" stroke="#000"/><path d="M29.328 16.008h16.31-16.31z" fill="#FF6C40"/><path d="M29.328 16.007h16.31" stroke="#000"/><path d="M43.55 36.84a1.072 1.072 0 11-2.145 0 1.072 1.072 0 012.144 0m.001 15.956a1.072 1.072 0 11-2.145 0 1.072 1.072 0 012.144 0m.001-7.978a1.072 1.072 0 11-2.145 0 1.072 1.072 0 012.144 0" fill="#000"/><path d="M37.374 25.641s-8.417-8.624-9.767-13.092l-3.533 3.844s2.39 8.832 7.274 13.716l6.026-4.468z" fill="#FF6C40"/><path d="M37.374 25.641s-8.417-8.624-9.767-13.092l-3.533 3.844s2.39 8.832 7.274 13.716l6.026-4.468z" stroke="#000"/><path d="M37.598 25.641s8.417-8.624 9.767-13.092l3.533 3.844s-2.39 8.832-7.274 13.716l-6.026-4.468z" fill="#FF6C40"/><path d="M37.598 25.641s8.417-8.624 9.767-13.092l3.533 3.844s-2.39 8.832-7.274 13.716l-6.026-4.468z" stroke="#000"/><g transform="translate(24 12.545)"><mask id="b" fill="#fff"><use xlink:href="#a"/></mask><path d="M-88.514 32.944l92.9 92.9" stroke="#000" stroke-linecap="round" stroke-linejoin="round" stroke-dasharray="0.019,1.819" mask="url(#b)"/></g><g transform="translate(24 12.545)"><mask id="d" fill="#fff"><use xlink:href="#c"/></mask><path d="M-90.185 34.659l92.9 92.902" stroke="#000" stroke-linecap="round" stroke-linejoin="round" stroke-dasharray="0.019,1.819" mask="url(#d)"/></g><g transform="translate(24 12.545)"><mask id="f" fill="#fff"><use xlink:href="#e"/></mask><path d="M-91.855 36.374l92.9 92.901" stroke="#000" stroke-linecap="round" stroke-linejoin="round" stroke-dasharray="0.019,1.819" mask="url(#f)"/></g><g transform="translate(24 12.545)"><mask id="h" fill="#fff"><use xlink:href="#g"/></mask><path d="M-93.525 38.089l92.9 92.9" stroke="#000" stroke-linecap="round" stroke-linejoin="round" stroke-dasharray="0.019,1.819" mask="url(#h)"/></g><g transform="translate(24 12.545)"><mask id="j" fill="#fff"><use xlink:href="#i"/></mask><path d="M-95.196 39.804l92.9 92.902" stroke="#000" stroke-linecap="round" stroke-linejoin="round" stroke-dasharray="0.019,1.819" mask="url(#j)"/></g><g transform="translate(24 12.545)"><mask id="l" fill="#fff"><use xlink:href="#k"/></mask><path d="M-96.867 41.519l92.901 92.901" stroke="#000" stroke-linecap="round" stroke-linejoin="round" stroke-dasharray="0.019,1.819" mask="url(#l)"/></g><g transform="translate(24 12.545)"><mask id="n" fill="#fff"><use xlink:href="#m"/></mask><path d="M-98.537 43.234l92.9 92.9" stroke="#000" stroke-linecap="round" stroke-linejoin="round" stroke-dasharray="0.019,1.819" mask="url(#n)"/></g><g transform="translate(24 12.545)"><mask id="p" fill="#fff"><use xlink:href="#o"/></mask><path d="M-100.208 44.949l92.901 92.902" stroke="#000" stroke-linecap="round" stroke-linejoin="round" stroke-dasharray="0.019,1.819" mask="url(#p)"/></g><g transform="translate(24 12.545)"><mask id="r" fill="#fff"><use xlink:href="#q"/></mask><path d="M-75.151 19.224l92.9 92.902" stroke="#000" stroke-linecap="round" stroke-linejoin="round" stroke-dasharray="0.019,1.819" mask="url(#r)"/></g><g transform="translate(24 12.545)"><mask id="t" fill="#fff"><use xlink:href="#s"/></mask><path d="M-76.821 20.939l92.9 92.9" stroke="#000" stroke-linecap="round" stroke-linejoin="round" stroke-dasharray="0.019,1.819" mask="url(#t)"/></g><g transform="translate(24 12.545)"><mask id="v" fill="#fff"><use xlink:href="#u"/></mask><path d="M-78.492 22.654l92.9 92.902" stroke="#000" stroke-linecap="round" stroke-linejoin="round" stroke-dasharray="0.019,1.819" mask="url(#v)"/></g><g transform="translate(24 12.545)"><mask id="x" fill="#fff"><use xlink:href="#w"/></mask><path d="M-80.162 24.369l92.9 92.902" stroke="#000" stroke-linecap="round" stroke-linejoin="round" stroke-dasharray="0.019,1.819" mask="url(#x)"/></g><g transform="translate(24 12.545)"><mask id="z" fill="#fff"><use xlink:href="#y"/></mask><path d="M-81.833 26.084l92.9 92.9" stroke="#000" stroke-linecap="round" stroke-linejoin="round" stroke-dasharray="0.019,1.819" mask="url(#z)"/></g><g transform="translate(24 12.545)"><mask id="B" fill="#fff"><use xlink:href="#A"/></mask><path d="M-83.503 27.799l92.9 92.9" stroke="#000" stroke-linecap="round" stroke-linejoin="round" stroke-dasharray="0.019,1.819" mask="url(#B)"/></g><g transform="translate(24 12.545)"><mask id="D" fill="#fff"><use xlink:href="#C"/></mask><path d="M-85.174 29.514l92.9 92.902" stroke="#000" stroke-linecap="round" stroke-linejoin="round" stroke-dasharray="0.019,1.819" mask="url(#D)"/></g><g transform="translate(24 12.545)"><mask id="F" fill="#fff"><use xlink:href="#E"/></mask><path d="M-86.844 31.229l92.9 92.9" stroke="#000" stroke-linecap="round" stroke-linejoin="round" stroke-dasharray="0.019,1.819" mask="url(#F)"/></g><g transform="translate(24 12.545)"><mask id="H" fill="#fff"><use xlink:href="#G"/></mask><path d="M-61.166 6.21l92.9 92.903" stroke="#000" stroke-linecap="round" stroke-linejoin="round" stroke-dasharray="0.019,1.819" mask="url(#H)"/></g><g transform="translate(24 12.545)"><mask id="J" fill="#fff"><use xlink:href="#I"/></mask><path d="M-62.837 7.926l92.901 92.901" stroke="#000" stroke-linecap="round" stroke-linejoin="round" stroke-dasharray="0.019,1.819" mask="url(#J)"/></g><g transform="translate(24 12.545)"><mask id="L" fill="#fff"><use xlink:href="#K"/></mask><path d="M-64.507 9.641l92.901 92.901" stroke="#000" stroke-linecap="round" stroke-linejoin="round" stroke-dasharray="0.019,1.819" mask="url(#L)"/></g><g transform="translate(24 12.545)"><mask id="N" fill="#fff"><use xlink:href="#M"/></mask><path d="M-66.177 11.356l92.9 92.902" stroke="#000" stroke-linecap="round" stroke-linejoin="round" stroke-dasharray="0.019,1.819" mask="url(#N)"/></g><g transform="translate(24 12.545)"><mask id="P" fill="#fff"><use xlink:href="#O"/></mask><path d="M-67.848 13.071l92.901 92.901" stroke="#000" stroke-linecap="round" stroke-linejoin="round" stroke-dasharray="0.019,1.819" mask="url(#P)"/></g><g transform="translate(24 12.545)"><mask id="R" fill="#fff"><use xlink:href="#Q"/></mask><path d="M-69.518 14.786l92.9 92.901" stroke="#000" stroke-linecap="round" stroke-linejoin="round" stroke-dasharray="0.019,1.819" mask="url(#R)"/></g><g transform="translate(24 12.545)"><mask id="T" fill="#fff"><use xlink:href="#S"/></mask><path d="M-71.189 16.5l92.901 92.903" stroke="#000" stroke-linecap="round" stroke-linejoin="round" stroke-dasharray="0.019,1.819" mask="url(#T)"/></g><g transform="translate(24 12.545)"><mask id="V" fill="#fff"><use xlink:href="#U"/></mask><path d="M-72.859 18.216l92.901 92.902" stroke="#000" stroke-linecap="round" stroke-linejoin="round" stroke-dasharray="0.019,1.819" mask="url(#V)"/></g><g transform="translate(24 12.545)"><mask id="X" fill="#fff"><use xlink:href="#W"/></mask><path d="M-47.802-7.509l92.9 92.901" stroke="#000" stroke-linecap="round" stroke-linejoin="round" stroke-dasharray="0.019,1.819" mask="url(#X)"/></g><g transform="translate(24 12.545)"><mask id="Z" fill="#fff"><use xlink:href="#Y"/></mask><path d="M-49.473-5.794l92.9 92.902" stroke="#000" stroke-linecap="round" stroke-linejoin="round" stroke-dasharray="0.019,1.819" mask="url(#Z)"/></g><g transform="translate(24 12.545)"><mask id="ab" fill="#fff"><use xlink:href="#aa"/></mask><path d="M-51.143-4.08l92.9 92.903" stroke="#000" stroke-linecap="round" stroke-linejoin="round" stroke-dasharray="0.019,1.819" mask="url(#ab)"/></g><g transform="translate(24 12.545)"><mask id="ad" fill="#fff"><use xlink:href="#ac"/></mask><path d="M-52.814-2.364l92.9 92.901" stroke="#000" stroke-linecap="round" stroke-linejoin="round" stroke-dasharray="0.019,1.819" mask="url(#ad)"/></g><g transform="translate(24 12.545)"><mask id="af" fill="#fff"><use xlink:href="#ae"/></mask><path d="M-54.484-.649l92.9 92.902" stroke="#000" stroke-linecap="round" stroke-linejoin="round" stroke-dasharray="0.019,1.819" mask="url(#af)"/></g><g transform="translate(24 12.545)"><mask id="ah" fill="#fff"><use xlink:href="#ag"/></mask><path d="M-56.154 1.066l92.9 92.902" stroke="#000" stroke-linecap="round" stroke-linejoin="round" stroke-dasharray="0.019,1.819" mask="url(#ah)"/></g><g transform="translate(24 12.545)"><mask id="aj" fill="#fff"><use xlink:href="#ai"/></mask><path d="M-57.825 2.781l92.9 92.901" stroke="#000" stroke-linecap="round" stroke-linejoin="round" stroke-dasharray="0.019,1.819" mask="url(#aj)"/></g><g transform="translate(24 12.545)"><mask id="al" fill="#fff"><use xlink:href="#ak"/></mask><path d="M-59.495 4.496l92.9 92.901" stroke="#000" stroke-linecap="round" stroke-linejoin="round" stroke-dasharray="0.019,1.819" mask="url(#al)"/></g><g transform="translate(24 12.545)"><mask id="an" fill="#fff"><use xlink:href="#am"/></mask><path d="M-34.438-21.13l92.9 92.9" stroke="#000" stroke-linecap="round" stroke-linejoin="round" stroke-dasharray="0.019,1.819" mask="url(#an)"/></g><g transform="translate(24 12.545)"><mask id="ap" fill="#fff"><use xlink:href="#ao"/></mask><path d="M-36.108-19.416l92.9 92.9" stroke="#000" stroke-linecap="round" stroke-linejoin="round" stroke-dasharray="0.019,1.819" mask="url(#ap)"/></g><g transform="translate(24 12.545)"><mask id="ar" fill="#fff"><use xlink:href="#aq"/></mask><path d="M-37.779-17.701l92.9 92.902" stroke="#000" stroke-linecap="round" stroke-linejoin="round" stroke-dasharray="0.019,1.819" mask="url(#ar)"/></g><g transform="translate(24 12.545)"><mask id="at" fill="#fff"><use xlink:href="#as"/></mask><path d="M-39.45-15.986l92.9 92.902" stroke="#000" stroke-linecap="round" stroke-linejoin="round" stroke-dasharray="0.019,1.819" mask="url(#at)"/></g><g transform="translate(24 12.545)"><mask id="av" fill="#fff"><use xlink:href="#au"/></mask><path d="M-41.12-14.271l92.9 92.9" stroke="#000" stroke-linecap="round" stroke-linejoin="round" stroke-dasharray="0.019,1.819" mask="url(#av)"/></g><g transform="translate(24 12.545)"><mask id="ax" fill="#fff"><use xlink:href="#aw"/></mask><path d="M-42.79-12.556l92.9 92.902" stroke="#000" stroke-linecap="round" stroke-linejoin="round" stroke-dasharray="0.019,1.819" mask="url(#ax)"/></g><g transform="translate(24 12.545)"><mask id="az" fill="#fff"><use xlink:href="#ay"/></mask><path d="M-44.46-10.84l92.9 92.9" stroke="#000" stroke-linecap="round" stroke-linejoin="round" stroke-dasharray="0.019,1.819" mask="url(#az)"/></g><g transform="translate(24 12.545)"><mask id="aB" fill="#fff"><use xlink:href="#aA"/></mask><path d="M-46.131-9.126l92.9 92.901" stroke="#000" stroke-linecap="round" stroke-linejoin="round" stroke-dasharray="0.019,1.819" mask="url(#aB)"/></g><g transform="translate(24 12.545)"><mask id="aD" fill="#fff"><use xlink:href="#aC"/></mask><path d="M-21.075-34.851l92.9 92.902" stroke="#000" stroke-linecap="round" stroke-linejoin="round" stroke-dasharray="0.019,1.819" mask="url(#aD)"/></g><g transform="translate(24 12.545)"><mask id="aF" fill="#fff"><use xlink:href="#aE"/></mask><path d="M-22.745-33.136l92.9 92.901" stroke="#000" stroke-linecap="round" stroke-linejoin="round" stroke-dasharray="0.019,1.819" mask="url(#aF)"/></g><g transform="translate(24 12.545)"><mask id="aH" fill="#fff"><use xlink:href="#aG"/></mask><path d="M-24.416-31.421l92.9 92.901" stroke="#000" stroke-linecap="round" stroke-linejoin="round" stroke-dasharray="0.019,1.819" mask="url(#aH)"/></g><g transform="translate(24 12.545)"><mask id="aJ" fill="#fff"><use xlink:href="#aI"/></mask><path d="M-26.086-29.706l92.9 92.9" stroke="#000" stroke-linecap="round" stroke-linejoin="round" stroke-dasharray="0.019,1.819" mask="url(#aJ)"/></g><g transform="translate(24 12.545)"><mask id="aL" fill="#fff"><use xlink:href="#aK"/></mask><path d="M-27.756-27.991l92.9 92.902" stroke="#000" stroke-linecap="round" stroke-linejoin="round" stroke-dasharray="0.019,1.819" mask="url(#aL)"/></g><g transform="translate(24 12.545)"><mask id="aN" fill="#fff"><use xlink:href="#aM"/></mask><path d="M-29.427-26.276l92.9 92.901" stroke="#000" stroke-linecap="round" stroke-linejoin="round" stroke-dasharray="0.019,1.819" mask="url(#aN)"/></g><g transform="translate(24 12.545)"><mask id="aP" fill="#fff"><use xlink:href="#aO"/></mask><path d="M-31.097-24.561l92.9 92.902" stroke="#000" stroke-linecap="round" stroke-linejoin="round" stroke-dasharray="0.019,1.819" mask="url(#aP)"/></g><g transform="translate(24 12.545)"><mask id="aR" fill="#fff"><use xlink:href="#aQ"/></mask><path d="M-32.768-22.846l92.9 92.902" stroke="#000" stroke-linecap="round" stroke-linejoin="round" stroke-dasharray="0.019,1.819" mask="url(#aR)"/></g><g transform="translate(24 12.545)"><mask id="aT" fill="#fff"><use xlink:href="#aS"/></mask><path d="M-7.09-47.864l92.9 92.902" stroke="#000" stroke-linecap="round" stroke-linejoin="round" stroke-dasharray="0.019,1.819" mask="url(#aT)"/></g><g transform="translate(24 12.545)"><mask id="aV" fill="#fff"><use xlink:href="#aU"/></mask><path d="M-8.76-46.149l92.9 92.902" stroke="#000" stroke-linecap="round" stroke-linejoin="round" stroke-dasharray="0.019,1.819" mask="url(#aV)"/></g><g transform="translate(24 12.545)"><mask id="aX" fill="#fff"><use xlink:href="#aW"/></mask><path d="M-10.43-44.434l92.9 92.901" stroke="#000" stroke-linecap="round" stroke-linejoin="round" stroke-dasharray="0.019,1.819" mask="url(#aX)"/></g><g transform="translate(24 12.545)"><mask id="aZ" fill="#fff"><use xlink:href="#aY"/></mask><path d="M-12.1-42.719l92.9 92.901" stroke="#000" stroke-linecap="round" stroke-linejoin="round" stroke-dasharray="0.019,1.819" mask="url(#aZ)"/></g><g transform="translate(24 12.545)"><mask id="bb" fill="#fff"><use xlink:href="#ba"/></mask><path d="M-13.771-41.004l92.9 92.902" stroke="#000" stroke-linecap="round" stroke-linejoin="round" stroke-dasharray="0.019,1.819" mask="url(#bb)"/></g><g transform="translate(24 12.545)"><mask id="bd" fill="#fff"><use xlink:href="#bc"/></mask><path d="M-15.441-39.29l92.9 92.903" stroke="#000" stroke-linecap="round" stroke-linejoin="round" stroke-dasharray="0.019,1.819" mask="url(#bd)"/></g><g transform="translate(24 12.545)"><mask id="bf" fill="#fff"><use xlink:href="#be"/></mask><path d="M-17.112-37.574l92.9 92.901" stroke="#000" stroke-linecap="round" stroke-linejoin="round" stroke-dasharray="0.019,1.819" mask="url(#bf)"/></g><g transform="translate(24 12.545)"><mask id="bh" fill="#fff"><use xlink:href="#bg"/></mask><path d="M-18.782-35.859l92.9 92.902" stroke="#000" stroke-linecap="round" stroke-linejoin="round" stroke-dasharray="0.019,1.819" mask="url(#bh)"/></g><g transform="translate(24 12.545)"><mask id="bj" fill="#fff"><use xlink:href="#bi"/></mask><path d="M6.274-61.584l92.9 92.902" stroke="#000" stroke-linecap="round" stroke-linejoin="round" stroke-dasharray="0.019,1.819" mask="url(#bj)"/></g><g transform="translate(24 12.545)"><mask id="bl" fill="#fff"><use xlink:href="#bk"/></mask><path d="M4.603-59.869l92.9 92.901" stroke="#000" stroke-linecap="round" stroke-linejoin="round" stroke-dasharray="0.019,1.819" mask="url(#bl)"/></g><g transform="translate(24 12.545)"><mask id="bn" fill="#fff"><use xlink:href="#bm"/></mask><path d="M2.933-58.154l92.9 92.902" stroke="#000" stroke-linecap="round" stroke-linejoin="round" stroke-dasharray="0.019,1.819" mask="url(#bn)"/></g><g transform="translate(24 12.545)"><mask id="bp" fill="#fff"><use xlink:href="#bo"/></mask><path d="M1.263-56.439l92.9 92.902" stroke="#000" stroke-linecap="round" stroke-linejoin="round" stroke-dasharray="0.019,1.819" mask="url(#bp)"/></g><g transform="translate(24 12.545)"><mask id="br" fill="#fff"><use xlink:href="#bq"/></mask><path d="M-.408-54.724l92.9 92.901" stroke="#000" stroke-linecap="round" stroke-linejoin="round" stroke-dasharray="0.019,1.819" mask="url(#br)"/></g><g transform="translate(24 12.545)"><mask id="bt" fill="#fff"><use xlink:href="#bs"/></mask><path d="M-2.078-53.009l92.9 92.901" stroke="#000" stroke-linecap="round" stroke-linejoin="round" stroke-dasharray="0.019,1.819" mask="url(#bt)"/></g><g transform="translate(24 12.545)"><mask id="bv" fill="#fff"><use xlink:href="#bu"/></mask><path d="M-3.749-51.294l92.9 92.902" stroke="#000" stroke-linecap="round" stroke-linejoin="round" stroke-dasharray="0.019,1.819" mask="url(#bv)"/></g><g transform="translate(24 12.545)"><mask id="bx" fill="#fff"><use xlink:href="#bw"/></mask><path d="M-5.42-49.579l92.9 92.901" stroke="#000" stroke-linecap="round" stroke-linejoin="round" stroke-dasharray="0.019,1.819" mask="url(#bx)"/></g><g transform="translate(37 12.545)"><mask id="bz" fill="#fff"><use xlink:href="#by"/></mask><path d="M102.824 32.775l-92.9 92.9" stroke="#000" stroke-linecap="round" stroke-linejoin="round" stroke-dasharray="0.019,1.819" mask="url(#bz)"/></g><g transform="translate(37 12.545)"><mask id="bB" fill="#fff"><use xlink:href="#bA"/></mask><path d="M104.494 34.49l-92.9 92.902" stroke="#000" stroke-linecap="round" stroke-linejoin="round" stroke-dasharray="0.019,1.819" mask="url(#bB)"/></g><g transform="translate(37 12.545)"><mask id="bD" fill="#fff"><use xlink:href="#bC"/></mask><path d="M106.164 36.205l-92.9 92.901" stroke="#000" stroke-linecap="round" stroke-linejoin="round" stroke-dasharray="0.019,1.819" mask="url(#bD)"/></g><g transform="translate(37 12.545)"><mask id="bF" fill="#fff"><use xlink:href="#bE"/></mask><path d="M107.835 37.92l-92.9 92.9" stroke="#000" stroke-linecap="round" stroke-linejoin="round" stroke-dasharray="0.019,1.819" mask="url(#bF)"/></g><g transform="translate(37 12.545)"><mask id="bH" fill="#fff"><use xlink:href="#bG"/></mask><path d="M109.505 39.635l-92.9 92.902" stroke="#000" stroke-linecap="round" stroke-linejoin="round" stroke-dasharray="0.019,1.819" mask="url(#bH)"/></g><g transform="translate(37 12.545)"><mask id="bJ" fill="#fff"><use xlink:href="#bI"/></mask><path d="M111.176 41.35l-92.9 92.901" stroke="#000" stroke-linecap="round" stroke-linejoin="round" stroke-dasharray="0.019,1.819" mask="url(#bJ)"/></g><g transform="translate(37 12.545)"><mask id="bL" fill="#fff"><use xlink:href="#bK"/></mask><path d="M112.846 43.065l-92.9 92.9" stroke="#000" stroke-linecap="round" stroke-linejoin="round" stroke-dasharray="0.019,1.819" mask="url(#bL)"/></g><g transform="translate(37 12.545)"><mask id="bN" fill="#fff"><use xlink:href="#bM"/></mask><path d="M114.516 44.78l-92.9 92.902" stroke="#000" stroke-linecap="round" stroke-linejoin="round" stroke-dasharray="0.019,1.819" mask="url(#bN)"/></g><g transform="translate(37 12.545)"><mask id="bP" fill="#fff"><use xlink:href="#bO"/></mask><path d="M89.46 19.055l-92.9 92.902" stroke="#000" stroke-linecap="round" stroke-linejoin="round" stroke-dasharray="0.019,1.819" mask="url(#bP)"/></g><g transform="translate(37 12.545)"><mask id="bR" fill="#fff"><use xlink:href="#bQ"/></mask><path d="M91.13 20.77l-92.9 92.901" stroke="#000" stroke-linecap="round" stroke-linejoin="round" stroke-dasharray="0.019,1.819" mask="url(#bR)"/></g><g transform="translate(37 12.545)"><mask id="bT" fill="#fff"><use xlink:href="#bS"/></mask><path d="M92.801 22.485l-92.9 92.902" stroke="#000" stroke-linecap="round" stroke-linejoin="round" stroke-dasharray="0.019,1.819" mask="url(#bT)"/></g><g transform="translate(37 12.545)"><mask id="bV" fill="#fff"><use xlink:href="#bU"/></mask><path d="M94.472 24.2l-92.9 92.902" stroke="#000" stroke-linecap="round" stroke-linejoin="round" stroke-dasharray="0.019,1.819" mask="url(#bV)"/></g><g transform="translate(37 12.545)"><mask id="bX" fill="#fff"><use xlink:href="#bW"/></mask><path d="M96.142 25.915l-92.9 92.901" stroke="#000" stroke-linecap="round" stroke-linejoin="round" stroke-dasharray="0.019,1.819" mask="url(#bX)"/></g><g transform="translate(37 12.545)"><mask id="bZ" fill="#fff"><use xlink:href="#bY"/></mask><path d="M97.812 27.63l-92.9 92.9" stroke="#000" stroke-linecap="round" stroke-linejoin="round" stroke-dasharray="0.019,1.819" mask="url(#bZ)"/></g><g transform="translate(37 12.545)"><mask id="cb" fill="#fff"><use xlink:href="#ca"/></mask><path d="M99.483 29.345l-92.9 92.902" stroke="#000" stroke-linecap="round" stroke-linejoin="round" stroke-dasharray="0.019,1.819" mask="url(#cb)"/></g><g transform="translate(37 12.545)"><mask id="cd" fill="#fff"><use xlink:href="#cc"/></mask><path d="M101.153 31.06l-92.9 92.901" stroke="#000" stroke-linecap="round" stroke-linejoin="round" stroke-dasharray="0.019,1.819" mask="url(#cd)"/></g><g transform="translate(37 12.545)"><mask id="cf" fill="#fff"><use xlink:href="#ce"/></mask><path d="M75.475 6.042l-92.9 92.902" stroke="#000" stroke-linecap="round" stroke-linejoin="round" stroke-dasharray="0.019,1.819" mask="url(#cf)"/></g><g transform="translate(37 12.545)"><mask id="ch" fill="#fff"><use xlink:href="#cg"/></mask><path d="M77.145 7.757l-92.9 92.902" stroke="#000" stroke-linecap="round" stroke-linejoin="round" stroke-dasharray="0.019,1.819" mask="url(#ch)"/></g><g transform="translate(37 12.545)"><mask id="cj" fill="#fff"><use xlink:href="#ci"/></mask><path d="M78.816 9.472l-92.9 92.901" stroke="#000" stroke-linecap="round" stroke-linejoin="round" stroke-dasharray="0.019,1.819" mask="url(#cj)"/></g><g transform="translate(37 12.545)"><mask id="cl" fill="#fff"><use xlink:href="#ck"/></mask><path d="M80.486 11.187l-92.9 92.902" stroke="#000" stroke-linecap="round" stroke-linejoin="round" stroke-dasharray="0.019,1.819" mask="url(#cl)"/></g><g transform="translate(37 12.545)"><mask id="cn" fill="#fff"><use xlink:href="#cm"/></mask><path d="M82.157 12.902l-92.9 92.901" stroke="#000" stroke-linecap="round" stroke-linejoin="round" stroke-dasharray="0.019,1.819" mask="url(#cn)"/></g><g transform="translate(37 12.545)"><mask id="cp" fill="#fff"><use xlink:href="#co"/></mask><path d="M83.827 14.617l-92.9 92.901" stroke="#000" stroke-linecap="round" stroke-linejoin="round" stroke-dasharray="0.019,1.819" mask="url(#cp)"/></g><g transform="translate(37 12.545)"><mask id="cr" fill="#fff"><use xlink:href="#cq"/></mask><path d="M85.497 16.332l-92.9 92.902" stroke="#000" stroke-linecap="round" stroke-linejoin="round" stroke-dasharray="0.019,1.819" mask="url(#cr)"/></g><g transform="translate(37 12.545)"><mask id="ct" fill="#fff"><use xlink:href="#cs"/></mask><path d="M87.168 18.047l-92.9 92.902" stroke="#000" stroke-linecap="round" stroke-linejoin="round" stroke-dasharray="0.019,1.819" mask="url(#ct)"/></g><g transform="translate(37 12.545)"><mask id="cv" fill="#fff"><use xlink:href="#cu"/></mask><path d="M62.112-7.678l-92.9 92.901" stroke="#000" stroke-linecap="round" stroke-linejoin="round" stroke-dasharray="0.019,1.819" mask="url(#cv)"/></g><g transform="translate(37 12.545)"><mask id="cx" fill="#fff"><use xlink:href="#cw"/></mask><path d="M63.782-5.963l-92.9 92.901" stroke="#000" stroke-linecap="round" stroke-linejoin="round" stroke-dasharray="0.019,1.819" mask="url(#cx)"/></g><g transform="translate(37 12.545)"><mask id="cz" fill="#fff"><use xlink:href="#cy"/></mask><path d="M65.453-4.248l-92.9 92.902" stroke="#000" stroke-linecap="round" stroke-linejoin="round" stroke-dasharray="0.019,1.819" mask="url(#cz)"/></g><g transform="translate(37 12.545)"><mask id="cB" fill="#fff"><use xlink:href="#cA"/></mask><path d="M67.123-2.533l-92.9 92.901" stroke="#000" stroke-linecap="round" stroke-linejoin="round" stroke-dasharray="0.019,1.819" mask="url(#cB)"/></g><g transform="translate(37 12.545)"><mask id="cD" fill="#fff"><use xlink:href="#cC"/></mask><path d="M68.793-.818l-92.9 92.902" stroke="#000" stroke-linecap="round" stroke-linejoin="round" stroke-dasharray="0.019,1.819" mask="url(#cD)"/></g><g transform="translate(37 12.545)"><mask id="cF" fill="#fff"><use xlink:href="#cE"/></mask><path d="M70.464.897l-92.9 92.902" stroke="#000" stroke-linecap="round" stroke-linejoin="round" stroke-dasharray="0.019,1.819" mask="url(#cF)"/></g><g transform="translate(37 12.545)"><mask id="cH" fill="#fff"><use xlink:href="#cG"/></mask><path d="M72.134 2.612l-92.9 92.901" stroke="#000" stroke-linecap="round" stroke-linejoin="round" stroke-dasharray="0.019,1.819" mask="url(#cH)"/></g><g transform="translate(37 12.545)"><mask id="cJ" fill="#fff"><use xlink:href="#cI"/></mask><path d="M73.805 4.327l-92.9 92.901" stroke="#000" stroke-linecap="round" stroke-linejoin="round" stroke-dasharray="0.019,1.819" mask="url(#cJ)"/></g><g transform="translate(37 12.545)"><mask id="cL" fill="#fff"><use xlink:href="#cK"/></mask><path d="M48.747-21.3l-92.9 92.901" stroke="#000" stroke-linecap="round" stroke-linejoin="round" stroke-dasharray="0.019,1.819" mask="url(#cL)"/></g><g transform="translate(37 12.545)"><mask id="cN" fill="#fff"><use xlink:href="#cM"/></mask><path d="M50.418-19.585l-92.9 92.901" stroke="#000" stroke-linecap="round" stroke-linejoin="round" stroke-dasharray="0.019,1.819" mask="url(#cN)"/></g><g transform="translate(37 12.545)"><mask id="cP" fill="#fff"><use xlink:href="#cO"/></mask><path d="M52.088-17.87l-92.9 92.902" stroke="#000" stroke-linecap="round" stroke-linejoin="round" stroke-dasharray="0.019,1.819" mask="url(#cP)"/></g><g transform="translate(37 12.545)"><mask id="cR" fill="#fff"><use xlink:href="#cQ"/></mask><path d="M53.759-16.155l-92.9 92.902" stroke="#000" stroke-linecap="round" stroke-linejoin="round" stroke-dasharray="0.019,1.819" mask="url(#cR)"/></g><g transform="translate(37 12.545)"><mask id="cT" fill="#fff"><use xlink:href="#cS"/></mask><path d="M55.43-14.44l-92.9 92.901" stroke="#000" stroke-linecap="round" stroke-linejoin="round" stroke-dasharray="0.019,1.819" mask="url(#cT)"/></g><g transform="translate(37 12.545)"><mask id="cV" fill="#fff"><use xlink:href="#cU"/></mask><path d="M57.1-12.725l-92.9 92.902" stroke="#000" stroke-linecap="round" stroke-linejoin="round" stroke-dasharray="0.019,1.819" mask="url(#cV)"/></g><g transform="translate(37 12.545)"><mask id="cX" fill="#fff"><use xlink:href="#cW"/></mask><path d="M58.77-11.01l-92.9 92.902" stroke="#000" stroke-linecap="round" stroke-linejoin="round" stroke-dasharray="0.019,1.819" mask="url(#cX)"/></g><g transform="translate(37 12.545)"><mask id="cZ" fill="#fff"><use xlink:href="#cY"/></mask><path d="M60.44-9.295l-92.9 92.901" stroke="#000" stroke-linecap="round" stroke-linejoin="round" stroke-dasharray="0.019,1.819" mask="url(#cZ)"/></g><g transform="translate(37 12.545)"><mask id="db" fill="#fff"><use xlink:href="#da"/></mask><path d="M35.384-35.02l-92.9 92.902" stroke="#000" stroke-linecap="round" stroke-linejoin="round" stroke-dasharray="0.019,1.819" mask="url(#db)"/></g><g transform="translate(37 12.545)"><mask id="dd" fill="#fff"><use xlink:href="#dc"/></mask><path d="M37.055-33.305l-92.9 92.902" stroke="#000" stroke-linecap="round" stroke-linejoin="round" stroke-dasharray="0.019,1.819" mask="url(#dd)"/></g><g transform="translate(37 12.545)"><mask id="df" fill="#fff"><use xlink:href="#de"/></mask><path d="M38.725-31.59l-92.9 92.901" stroke="#000" stroke-linecap="round" stroke-linejoin="round" stroke-dasharray="0.019,1.819" mask="url(#df)"/></g><g transform="translate(37 12.545)"><mask id="dh" fill="#fff"><use xlink:href="#dg"/></mask><path d="M40.395-29.875l-92.9 92.9" stroke="#000" stroke-linecap="round" stroke-linejoin="round" stroke-dasharray="0.019,1.819" mask="url(#dh)"/></g><g transform="translate(37 12.545)"><mask id="dj" fill="#fff"><use xlink:href="#di"/></mask><path d="M42.066-28.16l-92.9 92.902" stroke="#000" stroke-linecap="round" stroke-linejoin="round" stroke-dasharray="0.019,1.819" mask="url(#dj)"/></g><g transform="translate(37 12.545)"><mask id="dl" fill="#fff"><use xlink:href="#dk"/></mask><path d="M43.736-26.445l-92.9 92.901" stroke="#000" stroke-linecap="round" stroke-linejoin="round" stroke-dasharray="0.019,1.819" mask="url(#dl)"/></g><g transform="translate(37 12.545)"><mask id="dn" fill="#fff"><use xlink:href="#dm"/></mask><path d="M45.407-24.73l-92.9 92.901" stroke="#000" stroke-linecap="round" stroke-linejoin="round" stroke-dasharray="0.019,1.819" mask="url(#dn)"/></g><g transform="translate(37 12.545)"><mask id="dp" fill="#fff"><use xlink:href="#do"/></mask><path d="M47.077-23.015l-92.9 92.902" stroke="#000" stroke-linecap="round" stroke-linejoin="round" stroke-dasharray="0.019,1.819" mask="url(#dp)"/></g><g transform="translate(37 12.545)"><mask id="dr" fill="#fff"><use xlink:href="#dq"/></mask><path d="M21.399-48.033l-92.9 92.901" stroke="#000" stroke-linecap="round" stroke-linejoin="round" stroke-dasharray="0.019,1.819" mask="url(#dr)"/></g><g transform="translate(37 12.545)"><mask id="dt" fill="#fff"><use xlink:href="#ds"/></mask><path d="M23.07-46.318l-92.9 92.902" stroke="#000" stroke-linecap="round" stroke-linejoin="round" stroke-dasharray="0.019,1.819" mask="url(#dt)"/></g><g transform="translate(37 12.545)"><mask id="dv" fill="#fff"><use xlink:href="#du"/></mask><path d="M24.74-44.603l-92.9 92.901" stroke="#000" stroke-linecap="round" stroke-linejoin="round" stroke-dasharray="0.019,1.819" mask="url(#dv)"/></g><g transform="translate(37 12.545)"><mask id="dx" fill="#fff"><use xlink:href="#dw"/></mask><path d="M26.41-42.888l-92.9 92.901" stroke="#000" stroke-linecap="round" stroke-linejoin="round" stroke-dasharray="0.019,1.819" mask="url(#dx)"/></g><g transform="translate(37 12.545)"><mask id="dz" fill="#fff"><use xlink:href="#dy"/></mask><path d="M28.08-41.173l-92.9 92.902" stroke="#000" stroke-linecap="round" stroke-linejoin="round" stroke-dasharray="0.019,1.819" mask="url(#dz)"/></g><g transform="translate(37 12.545)"><mask id="dB" fill="#fff"><use xlink:href="#dA"/></mask><path d="M29.75-39.458l-92.9 92.902" stroke="#000" stroke-linecap="round" stroke-linejoin="round" stroke-dasharray="0.019,1.819" mask="url(#dB)"/></g><g transform="translate(37 12.545)"><mask id="dD" fill="#fff"><use xlink:href="#dC"/></mask><path d="M31.421-37.743l-92.9 92.901" stroke="#000" stroke-linecap="round" stroke-linejoin="round" stroke-dasharray="0.019,1.819" mask="url(#dD)"/></g><g transform="translate(37 12.545)"><mask id="dF" fill="#fff"><use xlink:href="#dE"/></mask><path d="M33.092-36.028l-92.9 92.902" stroke="#000" stroke-linecap="round" stroke-linejoin="round" stroke-dasharray="0.019,1.819" mask="url(#dF)"/></g><g transform="translate(37 12.545)"><mask id="dH" fill="#fff"><use xlink:href="#dG"/></mask><path d="M8.036-61.753l-92.9 92.902" stroke="#000" stroke-linecap="round" stroke-linejoin="round" stroke-dasharray="0.019,1.819" mask="url(#dH)"/></g><g transform="translate(37 12.545)"><mask id="dJ" fill="#fff"><use xlink:href="#dI"/></mask><path d="M9.706-60.038l-92.9 92.901" stroke="#000" stroke-linecap="round" stroke-linejoin="round" stroke-dasharray="0.019,1.819" mask="url(#dJ)"/></g><g transform="translate(37 12.545)"><mask id="dL" fill="#fff"><use xlink:href="#dK"/></mask><path d="M11.376-58.323l-92.9 92.902" stroke="#000" stroke-linecap="round" stroke-linejoin="round" stroke-dasharray="0.019,1.819" mask="url(#dL)"/></g><g transform="translate(37 12.545)"><mask id="dN" fill="#fff"><use xlink:href="#dM"/></mask><path d="M13.047-56.608l-92.9 92.902" stroke="#000" stroke-linecap="round" stroke-linejoin="round" stroke-dasharray="0.019,1.819" mask="url(#dN)"/></g><g transform="translate(37 12.545)"><mask id="dP" fill="#fff"><use xlink:href="#dO"/></mask><path d="M14.717-54.893l-92.9 92.901" stroke="#000" stroke-linecap="round" stroke-linejoin="round" stroke-dasharray="0.019,1.819" mask="url(#dP)"/></g><g transform="translate(37 12.545)"><mask id="dR" fill="#fff"><use xlink:href="#dQ"/></mask><path d="M16.388-53.178l-92.9 92.901" stroke="#000" stroke-linecap="round" stroke-linejoin="round" stroke-dasharray="0.019,1.819" mask="url(#dR)"/></g><g transform="translate(37 12.545)"><mask id="dT" fill="#fff"><use xlink:href="#dS"/></mask><path d="M18.058-51.463l-92.9 92.902" stroke="#000" stroke-linecap="round" stroke-linejoin="round" stroke-dasharray="0.019,1.819" mask="url(#dT)"/></g><g transform="translate(37 12.545)"><mask id="dV" fill="#fff"><use xlink:href="#dU"/></mask><path d="M19.728-49.748l-92.9 92.901" stroke="#000" stroke-linecap="round" stroke-linejoin="round" stroke-dasharray="0.019,1.819" mask="url(#dV)"/></g></g></svg>