<svg width="24" height="24" viewBox="0 0 24 24" xmlns="http://www.w3.org/2000/svg" xmlns:xlink="http://www.w3.org/1999/xlink"><defs><path id="a" d="M0 .98h19.94V22H0z"/></defs><g fill="none" fill-rule="evenodd"><path d="M4.753 11.523l7.804-8.21 6.17 13.939-9.623.276.027 4.697s-1.551.045-1.71-.001c-.158-.046-4.256-10.287-4.256-10.287l1.588-.414z" fill="#FFF"/><path fill="#FF6D48" d="M1.213 13.075l2.669 6.087 3.539-1.552-2.668-6.087z"/><path stroke="#000" d="M1.213 13.075l2.669 6.087 3.539-1.552-2.668-6.087z"/><g transform="translate(0 1.02)"><mask id="b" fill="#fff"><use xlink:href="#a"/></mask><path d="M8.216 20h-.311l-.9-2.053.552-.24.628-.01.03 2.303zm-5.581-7.177l2.06-.903 1.786 4.073-2.06.903-1.786-4.073zm11.846-2.765l2.418 5.515-9.453.134-1.886-4.304 6.504-6.86 2.417 5.515zm1.832-.803L12.685.98 4.164 9.97 0 11.793l3.392 7.737 1.782-.78L6.599 22h3.644l-.058-4.333 9.755-.138-3.627-8.275z" fill="#000" mask="url(#b)"/></g><path fill="#000" d="M20.513 12.142l-.223 1.987 2.983.335.222-1.987zM22.03 6.5l-2.75 1.201.801 1.833 2.75-1.2zm-2.647-3.256l-1.61-1.187-1.781 2.415 1.61 1.187z"/></g></svg>