<svg xmlns="http://www.w3.org/2000/svg" width="9" height="12" viewBox="0 0 9 12"><path fill="#00B8B8" fill-rule="evenodd" d="M6.163 6.897a.263.263 0 11.307.427L4.563 8.696v1.463a.263.263 0 01-.526 0V6.684L2.126 5.309a.263.263 0 11.307-.427l1.604 1.154V2.542a.263.263 0 01.526 0v1.407l1.6-1.151a.263.263 0 11.307.427L4.563 4.597v3.451l1.6-1.151zM4.785.12a1.048 1.048 0 00-.974 0C1.724 1.217-.76 4.618.22 7.971c.8 2.741 2.728 3.668 3.616 3.956.3.098.625.098.926 0 .888-.288 2.815-1.215 3.616-3.956.98-3.353-1.507-6.754-3.594-7.851z"/></svg>